<svg width="15" height="11" viewBox="0 0 15 11" fill="none" xmlns="http://www.w3.org/2000/svg">
<path d="M6.4617 7.60019C6.4617 7.90019 6.36137 8.20018 6.26104 8.50018C6.16071 8.80018 5.96006 9.10017 5.75941 9.30017C5.55876 9.50017 5.25778 9.70018 4.9568 9.90018C4.65582 10.0002 4.25452 10.1002 3.85321 10.1002C3.35158 10.1002 2.95027 10.0002 2.54897 9.80017C2.14766 9.60017 1.74636 9.40019 1.44538 9.10019C1.1444 8.80019 1.04407 8.50019 0.843419 8.10019C0.743092 7.70019 0.642761 7.30017 0.642761 6.80017C0.642761 5.90017 0.843414 5.20018 1.14439 4.40018C1.44537 3.70018 1.84668 3.00018 2.44864 2.50018C2.64929 2.30018 2.95027 2.00017 3.25125 1.80017C3.55223 1.60017 3.85321 1.40017 4.15419 1.30017C4.45517 1.20017 4.65582 1.00018 4.85648 0.900177C5.05713 0.800177 5.15745 0.800195 5.25778 0.700195L6.66235 2.7002C6.46169 2.8002 6.16072 2.90019 5.85974 3.10019C5.55876 3.20019 5.25778 3.40019 4.9568 3.60019C4.65582 3.80019 4.45516 4.10018 4.25451 4.40018C4.05386 4.70018 3.95354 5.00018 3.95354 5.40018C4.65582 5.40018 5.15745 5.60018 5.65908 6.00018C6.26104 6.30018 6.4617 6.90019 6.4617 7.60019ZM14.3875 7.60019C14.3875 7.90019 14.2872 8.20018 14.1868 8.50018C14.0865 8.80018 13.8859 9.10017 13.6852 9.30017C13.4845 9.50017 13.1836 9.70018 12.8826 9.90018C12.5816 10.0002 12.1803 10.1002 11.779 10.1002C11.2774 10.1002 10.8761 10.0002 10.4748 9.80017C10.0735 9.60017 9.67215 9.40019 9.37117 9.10019C9.17051 8.80019 8.96985 8.50019 8.7692 8.10019C8.66887 7.70019 8.56855 7.30017 8.56855 6.80017C8.56855 5.90017 8.7692 5.20018 9.07018 4.40018C9.37116 3.70018 9.77247 3.00018 10.3744 2.50018C10.5751 2.30018 10.8761 2.00017 11.177 1.80017C11.478 1.60017 11.779 1.40017 12.08 1.30017C12.381 1.20017 12.5816 1.00018 12.7823 0.900177C12.9829 0.800177 13.0832 0.800195 13.1836 0.700195L14.5881 2.7002C14.3875 2.8002 14.0865 2.90019 13.7855 3.10019C13.4845 3.20019 13.1836 3.40019 12.8826 3.60019C12.5816 3.80019 12.381 4.10018 12.1803 4.40018C11.9796 4.70018 11.8793 5.00018 11.8793 5.40018C12.5816 5.40018 13.0832 5.60018 13.5849 6.00018C14.0865 6.30018 14.3875 6.90019 14.3875 7.60019Z" fill="white"/>
</svg>
