<svg width="15" height="10" viewBox="0 0 15 10" fill="none" xmlns="http://www.w3.org/2000/svg">
<path d="M8.40002 2.5C8.40002 2.2 8.50004 1.90001 8.60004 1.60001C8.70004 1.30001 8.90004 0.999988 9.10004 0.799988C9.30004 0.599988 9.60002 0.400012 9.90002 0.200012C10.2 0.100012 10.6 0 11 0C11.5 0 11.9 0.0999878 12.3 0.299988C12.7 0.499988 13.1 0.7 13.4 1C13.7 1.3 13.8 1.6 14 2C14.1 2.4 14.2 2.79999 14.2 3.29999C14.2 4.19999 14 4.90001 13.7 5.70001C13.4 6.40001 13 7.10001 12.4 7.60001C12.2 7.80001 11.9 8.09999 11.6 8.29999C11.3 8.49999 11 8.69999 10.7 8.79999C10.4 8.89999 10.2 9.10001 10 9.20001C9.80003 9.30001 9.70004 9.29999 9.60004 9.39999L8.20004 7.39999C8.40004 7.29999 8.70003 7.2 9.00003 7C9.30003 6.9 9.60002 6.7 9.90002 6.5C10.2 6.3 10.4 6.00001 10.6 5.70001C10.8 5.40001 10.9 5.10001 10.9 4.70001C10.2 4.70001 9.70004 4.50001 9.20004 4.10001C8.70004 3.80001 8.40002 3.2 8.40002 2.5ZM0.600037 2.5C0.600037 2.2 0.700018 1.90001 0.800018 1.60001C0.900018 1.30001 1.10002 0.999988 1.30002 0.799988C1.50002 0.599988 1.80004 0.400012 2.10004 0.200012C2.40004 0.100012 2.80004 0 3.20004 0C3.70004 0 4.10003 0.0999878 4.50003 0.299988C4.90003 0.499988 5.30004 0.7 5.60004 1C5.80004 1.3 6.00004 1.6 6.20004 2C6.30004 2.4 6.40002 2.79999 6.40002 3.29999C6.40002 4.19999 6.20002 4.90001 5.90002 5.70001C5.60002 6.40001 5.20004 7.10001 4.60004 7.60001C4.40004 7.80001 4.10002 8.09999 3.80002 8.29999C3.50002 8.49999 3.20002 8.69999 2.90002 8.79999C2.60002 8.89999 2.40004 9.10001 2.20004 9.20001C2.00004 9.30001 1.90002 9.29999 1.80002 9.39999L0.400024 7.39999C0.700024 7.29999 0.900043 7.2 1.20004 7C1.50004 6.9 1.80004 6.7 2.10004 6.5C2.40004 6.3 2.60002 6.00001 2.80002 5.70001C3.00002 5.40001 3.10004 5.10001 3.10004 4.70001C2.40004 4.70001 1.90002 4.50001 1.40002 4.10001C0.800024 3.80001 0.600037 3.2 0.600037 2.5Z" fill="white"/>
</svg>
