<svg width="15" height="10" viewBox="0 0 15 10" fill="none" xmlns="http://www.w3.org/2000/svg">
<path d="M8.35296 2.5C8.35296 2.2 8.4533 1.90001 8.55362 1.60001C8.65395 1.30001 8.8546 0.999988 9.05526 0.799988C9.25591 0.599988 9.55688 0.400012 9.85785 0.200012C10.1588 0.100012 10.5601 0 10.9615 0C11.4631 0 11.8644 0.0999878 12.2657 0.299988C12.667 0.499988 13.0683 0.7 13.3693 1C13.6703 1.3 13.7706 1.6 13.9712 2C14.0716 2.4 14.1719 2.79999 14.1719 3.29999C14.1719 4.19999 13.9713 4.90001 13.6703 5.70001C13.3693 6.40001 12.968 7.10001 12.366 7.60001C12.1654 7.80001 11.8644 8.09999 11.5634 8.29999C11.2624 8.49999 10.9615 8.69999 10.6605 8.79999C10.3595 8.89999 10.1588 9.10001 9.95819 9.20001C9.75753 9.30001 9.65722 9.29999 9.55689 9.39999L8.15232 7.39999C8.35298 7.29999 8.65394 7.2 8.95492 7C9.2559 6.9 9.55688 6.7 9.85785 6.5C10.1588 6.3 10.3595 6.00001 10.5602 5.70001C10.7608 5.40001 10.8611 5.10001 10.8611 4.70001C10.1588 4.70001 9.65722 4.50001 9.15559 4.10001C8.65396 3.80001 8.35296 3.2 8.35296 2.5ZM0.527508 2.5C0.527508 2.2 0.627816 1.90001 0.728143 1.60001C0.828469 1.30001 1.02912 0.999988 1.22978 0.799988C1.43043 0.599988 1.73143 0.400012 2.03241 0.200012C2.33338 0.100012 2.7347 0 3.136 0C3.63763 0 4.03893 0.0999878 4.44023 0.299988C4.84154 0.499988 5.24285 0.7 5.54383 1C5.74448 1.3 5.94514 1.6 6.1458 2C6.24612 2.4 6.34643 2.79999 6.34643 3.29999C6.34643 4.19999 6.14578 4.90001 5.8448 5.70001C5.54382 6.40001 5.14252 7.10001 4.54057 7.60001C4.33991 7.80001 4.03892 8.09999 3.73794 8.29999C3.43696 8.49999 3.13598 8.69999 2.835 8.79999C2.53402 8.89999 2.33339 9.10001 2.13274 9.20001C1.93208 9.30001 1.83173 9.29999 1.73141 9.39999L0.326843 7.39999C0.627823 7.29999 0.828494 7.2 1.12947 7C1.43045 6.9 1.73143 6.7 2.03241 6.5C2.33338 6.3 2.53402 6.00001 2.73467 5.70001C2.93532 5.40001 3.03567 5.10001 3.03567 4.70001C2.33338 4.70001 1.83174 4.50001 1.33011 4.10001C0.728149 3.80001 0.527508 3.2 0.527508 2.5Z" fill="white"/>
</svg>
