<svg version="1.1" xmlns="http://www.w3.org/2000/svg" xmlns:xlink="http://www.w3.org/1999/xlink">

  <symbol viewBox="0 0 235 3" id="pic-scale">
    <rect />
  </symbol>

  <symbol viewBox="0 0 20 20" id="ico-resize">
    <path d="M0 0V3V6H3V3H6V0H3H0Z"/>
    <path d="M3 14H0V17V20H3H6V17H3V14Z"/>
    <path d="M17 0H14V3H17V6H20V3V0H17Z"/>
    <path d="M17 17H14V20H17H20V17V14H17V17Z"/>
  </symbol>

  <symbol viewBox="0 0 32 20" id="ico-cc">
    <path d="M29 0H3C1.3 0 0 1.3 0 3V17C0 18.7 1.3 20 3 20H29C30.7 20 32 18.7 32 17V3C32 1.3 30.7 0 29 0ZM14.4 15.9C13.9 16 13.3 16 12.7 16C12 16 11.3 15.9 10.7 15.7C10.1 15.5 9.5 15.1 9.1 14.7C8.7 14.3 8.3 13.6 8 12.8C7.7 12 7.6 11.1 7.6 10C7.6 8.9 7.8 7.9 8.1 7.1C8.4 6.3 8.8 5.7 9.3 5.2C9.8 4.7 10.4 4.4 11 4.2C11.5 4.1 12.2 4 12.8 4C13.5 4 14 4 14.5 4.1C15 4.2 15.3 4.3 15.6 4.4L15.2 6.3C14.9 6.2 14.6 6.1 14.3 6C13.9 6 13.5 6 13 6C12.1 6 11.4 6.3 10.8 7C10.2 7.7 10 8.7 10 10C10 10.6 10.1 11.1 10.2 11.6C10.3 12.1 10.5 12.5 10.8 12.9C11.1 13.2 11.4 13.5 11.8 13.7C12.2 13.9 12.7 14 13.2 14C13.7 14 14.1 14 14.5 13.9C14.8 13.8 15.1 13.7 15.4 13.5L15.9 15.3C15.4 15.6 14.9 15.7 14.4 15.9ZM23.1 15.9C22.6 16 22 16 21.4 16C20.7 16 20 15.9 19.4 15.7C18.8 15.5 18.2 15.1 17.8 14.7C17.3 14.2 16.9 13.6 16.7 12.8C16.4 12 16.3 11.1 16.3 10C16.3 8.9 16.5 7.9 16.8 7.1C17.1 6.3 17.5 5.7 18 5.2C18.5 4.7 19.1 4.4 19.7 4.2C20.2 4.1 20.9 4 21.5 4C22.2 4 22.7 4 23.2 4.1C23.7 4.2 24 4.3 24.3 4.4L23.9 6.3C23.6 6.2 23.3 6.1 23 6C22.6 6 22.2 6 21.7 6C20.8 6 20.1 6.3 19.5 7C18.9 7.7 18.7 8.7 18.7 10C18.7 10.6 18.8 11.1 18.9 11.6C19 12.1 19.2 12.5 19.5 12.9C19.8 13.2 20.1 13.5 20.5 13.7C20.9 13.9 21.4 14 21.9 14C22.4 14 22.8 14 23.2 13.9C23.5 13.8 23.8 13.7 24.1 13.5L24.6 15.3C24.1 15.6 23.6 15.7 23.1 15.9Z"/>
  </symbol>

  <symbol viewBox="0 0 16 20" id="ico-refresh">
    <path d="M8 4V0L3 5L8 10V6C11.3 6 14 8.7 14 12C14 15.3 11.3 18 8 18C4.7 18 2 15.3 2 12H0C0 16.4 3.6 20 8 20C12.4 20 16 16.4 16 12C16 7.6 12.4 4 8 4Z"/>
  </symbol>

  <symbol viewBox="0 0 11 11" id="ico-button-slider">
    <path fill-rule="evenodd" clip-rule="evenodd" d="M5.49393 0.946737C7.99764 0.946737 10.0273 2.97662 10.0273 5.48029C10.0273 7.98395 7.99764 10.0135 5.49393 10.0135C2.99023 10.0135 0.960569 7.98395 0.960569 5.48029C0.960569 2.97662 2.99023 0.946737 5.49393 0.946737Z" fill="white"/>
  </symbol>

  <symbol viewBox="0 0 23 21" id="icon-like">
    <path d="M12.9636 3.78L12.3364 6.825L11.7091 9.45H14.3227H20.8045V11.55C20.8045 11.55 20.8045 11.55 20.8045 11.655L17.7727 18.9H8.36364V8.4L12.9636 3.78ZM2.09091 10.5V18.9V10.5ZM13.8 0L6.9 6.93C6.48182 7.245 6.27273 7.77 6.27273 8.4V18.9C6.27273 20.055 7.21364 21 8.36364 21H17.7727C18.6091 21 19.3409 20.475 19.6545 19.74L22.7909 12.285C22.8955 12.075 22.8955 11.76 22.8955 11.55V9.45H23C23 8.295 22.0591 7.35 20.9091 7.35H14.3227L15.3682 2.52V2.205C15.3682 1.785 15.1591 1.365 14.95 1.05L13.8 0ZM4.18182 8.4H0V21H4.18182V8.4Z"/>
  </symbol>

  <symbol viewBox="0 0 460 80" id="pic-sedona-header-background-form-catalog">
    <path d="M44.3 21.7C40.7 18.7 36.2 16.7 31.4 16.7C27.8 16.7 23.1 18.8 23.1 23C23.1 27.4 28.4 29.1 31.7 30.1L36.7 31.6C47.1 34.7 55.2 39.9 55.2 52C55.2 59.4 53.4 67.1 47.5 72.1C41.6 77.1 33.8 79.1 26.3 79.1C16.9 79.1 7.6 75.9 0 70.6L8.3 54.9C13.2 59.2 18.9 62.6 25.6 62.6C30.2 62.6 35 60.3 35 55.1C35 49.6 27.4 47.8 23.2 46.6C10.8 43.3 2.8 40.1 2.8 25.6C2.8 10.4 13.6 0.5 28.6 0.5C36.1 0.5 45.4 2.9 52 6.7L44.3 21.7Z" fill="white"/>
    <path d="M91.6 19V31.5H113.5V48H91.6V60.9H114.8V77.4H72.2V2.5H114.8V19H91.6Z" fill="white"/>
    <path d="M129.2 2.5H156.8C177.6 2.5 194.8 18.9 194.8 39.9C194.8 60.9 177.5 77.3 156.8 77.3H129.2V2.5ZM148.7 60.8H153.1C164.7 60.8 174.6 54.4 174.6 39.9C174.6 26.5 165.8 19 153.3 19H148.7V60.8Z" fill="white"/>
    <path d="M286.7 38.5C286.7 62.7 269.3 79.8 245.3 79.8C221.3 79.8 203.9 62.7 203.9 38.5C203.9 15.9 223.8 0 245.3 0C266.8 0 286.7 15.9 286.7 38.5ZM224.1 38.6C224.1 51.5 233.6 60.9 245.2 60.9C256.8 60.9 266.3 51.5 266.3 38.6C266.3 28.3 256.8 18.8 245.2 18.8C233.7 18.9 224.1 28.3 224.1 38.6Z" fill="white"/>
    <path d="M297 2.5H316.5L352.1 48.3H352.3V2.5H371.8V77.3H352.3L316.7 31.4H316.5V77.3H297V2.5Z" fill="white"/>
    <path d="M407.1 64.3L401.9 77.3H381.3L410.1 2.5H431.3L459.5 77.3H438.8L433.9 64.3H407.1ZM420.7 25.6H420.5L412.5 49.4H428.7L420.7 25.6Z" fill="white"/>
  </symbol>

  <symbol viewBox="0 0 187 97" id="pic-logo-triangle-desktop">
    <path d="M186.6 0H0L80.5 90.5C87.6 98.4 99.1 98.4 106.2 90.5L186.6 0Z" fill="#81B3D3" />
  </symbol>

  <symbol viewBox="0 0 102 84" id="pic-logo-sedona-tablet">
    <path d="M1 0.700195L50.6 59.1002L99.9 1.1002L1 0.700195Z" fill="#23A9E1" />
    <path
      d="M79.8001 17.3002C74.7001 17.3002 69.7001 17.4002 64.6001 17.4002C70.6001 10.5002 73.3001 11.2002 79.8001 17.3002Z"
      fill="white" />
    <path
      d="M38.5999 22.6997C47.4999 22.6997 56.3999 22.6997 65.2999 22.6997C63.2999 21.4997 58.5999 15.5997 55.9999 17.7997C55.7999 17.9997 48.4999 8.89973 43.6999 13.2997C39.4999 17.0997 37.5999 12.7997 32.7999 15.7997C27.4999 19.3997 35.9999 21.4997 38.5999 22.6997Z"
      fill="white" />
    <path d="M50.9 0H0V22.5L50.6 84L50.9 83.6L101.6 23.2V0H50.9ZM50.9 57.1L50.6 57.5L3.7 1.8H50.9H98.1L50.9 57.1Z"
      fill="#491213" />
    <path
      d="M50.6001 57.4998L50.9 57.0998L78.5 24.7998C71.6 25.6998 66.6 30.8998 59.9 29.7998C56.5 29.1998 56.4 27.2998 55.4 25.2998C54.7 23.7998 53.5 23.9998 51.9 23.3998C50.5 22.7998 49.6 21.6998 46.7001 22.2998C44.2001 22.8998 43.9001 26.7998 40.7001 26.5998C39 26.4998 38.9 24.0998 36.5 21.0998C30.2 13.4998 24.3 14.5998 20.3 21.5998L50.6001 57.4998Z"
      fill="#491213" />
    <path d="M46.5 70.9004L50.6 64.4004L54.6 70.9004L50.6 77.4004L46.5 70.9004Z" fill="#23A9E1" />
    <path
      d="M23.3 32.3004C23.8 32.9004 24.2001 33.6004 24.1001 34.4004C24.0001 35.0004 23.2 36.0004 23.8 36.2004C24.5 35.3004 25.3 34.3004 26 33.4004C25.4 33.2004 20.6 27.6004 20.6 26.9004C19.5 27.5004 18.5 28.1004 17.4 28.6004C17.6 29.3004 18.7 28.6004 19.3 28.6004C20.1 28.7004 20.7 29.2004 21.3 29.8004C19.6 31.2004 15.4 34.8004 14.9 34.9004C14.7 34.9004 13.8 34.3004 13.8 34.8004C13.8 35.1004 14.7 35.8004 14.8 36.0004C15.5 36.9004 16.3 37.8004 17 38.7004C17.6 38.4004 16.9001 38.0004 17.2001 37.5004C17.5001 37.1004 22.1 33.2004 23.3 32.3004Z"
      fill="white" />
    <path
      d="M18 25.3003C18.4 25.2003 18.6 25.7003 19 25.2003C18.2 24.2003 17.4 23.3003 16.6 22.3003C16.2 21.9003 15.8 21.4003 15.9 22.3003C16 22.9003 9.80005 28.0003 9.40005 28.1003C8.90005 28.3003 8.60005 27.7003 8.30005 28.2003C9.00005 29.1003 9.80005 29.9003 10.5 30.8003C10.7 31.1003 11.0001 31.4003 11.2001 31.7003C11.5001 32.0003 11.4 31.0003 11.4 31.1003C11.3 30.6003 11.9 30.2003 12.3 29.9003C13.8 28.6003 17.6 25.3003 18 25.3003Z"
      fill="white" />
    <path
      d="M9.19998 24.4C7.39998 24.9 5.49998 24.2 4.99998 22.4C4.49998 20.6 5.59998 18.6 7.09998 17.6C8.49998 16.6 10.7 16.6 11.5 18.4C11.8 19.2 11.7 20.1 11.4 20.9C11.2 21.4 10.8 21.9 11.5 22.2C12.4 21.1 13.2 20 14.1 18.9C13 18.3 12.6 17.2 11.8 16.3C10.9 15.2 9.69998 14.2 8.29998 14C5.39998 13.6 2.69998 16.6 2.49998 19.2C2.39998 20.7 2.89998 22 3.69998 23.2C4.49998 24.2 5.59998 24.8 6.09998 26C6.39998 26.1 8.79998 25 9.39998 24.7C9.29998 24.6 9.29998 24.5 9.19998 24.4C8.49998 24.6 9.19998 24.4 9.19998 24.4Z"
      fill="white" />
    <path
      d="M48.5 60.7996C47.3 59.9996 44.5 56.0996 43.9 55.4996C43.8 55.3996 43.7001 55.1996 43.6001 55.0996C43.6001 55.0996 43.3 55.2996 43.4 55.2996C43.2 55.3996 43.5 55.8996 43.3 56.1996C42.5 57.3996 37.5 61.1996 37.3 61.3996C36.7 61.7996 36.1 61.1996 35.8 61.6996C36.5 62.5996 38.6 65.1996 38.8 65.2996C39.3 65.3996 38.9 64.4996 39 64.2996C39.1 63.8996 41.6 61.8996 42.5 61.0996C42.8 60.7996 43.2 61.4996 43.4 61.7996C43.7 62.2996 43.9001 62.7996 43.7001 63.3996C43.6001 63.7996 43 64.2996 43.4 64.5996C44 63.8996 45.8 61.7996 46 61.5996C46.3 61.2996 45.4 61.5996 45.5 61.4996C45.1 61.6996 44.8 61.6996 44.4 61.4996C44.3 61.3996 43.3 60.3996 43.4 60.2996C43.8 59.8996 44.4 59.2996 44.9 59.1996C45.8 58.9996 46.5001 60.6996 46.6001 61.2996C46.7001 61.8996 46.7 62.4996 46.5 63.0996C46.4 63.4996 46 63.7996 46.5 63.9996C47.2 62.9996 47.9001 62.0996 48.6001 61.0996C48.8001 60.8996 48.6 60.7996 48.5 60.7996C48.4 60.6996 48.7 60.7996 48.5 60.7996Z"
      fill="white" />
    <path
      d="M38.3 56.6001C40.5 54.7001 40.8 51.5001 39.1 49.3001C37.2 46.8001 33.7 46.2001 31.3 48.2001C29.1 50.1001 28.8 53.2001 30.5 55.5001C32.5 58.2001 35.7 58.5001 38.3 56.6001C39.5 55.7001 38.2 56.7001 38.3 56.6001ZM37.8 51.9001C37.2 53.4001 35.6 55.0001 34.1 55.6001C32.3 56.3001 31 54.8001 31.7 53.0001C32.4 51.5001 33.9 49.9001 35.4 49.3001C37.3 48.6001 38.5 50.2001 37.8 51.9001C37.4 52.8001 37.9 51.7001 37.8 51.9001Z"
      fill="white" />
    <path
      d="M31.9 42.0004C32.4 42.1004 32.8 42.5004 33.2 42.0004C32.5 41.1004 31.7 40.2004 31 39.4004C30.4 39.7004 31 39.9004 30.8 40.4004C30.6 40.8004 28.2 41.2004 27.6 41.3004C27.8 40.7004 28.5 38.7004 28.8 38.5004C29.3 38.1004 29.7 38.9004 30.1 38.4004C29.2 37.3004 28.3 36.2004 27.4 35.1004C27.1 34.7004 26.8 34.1004 26.4 34.4004C26.4 34.4004 26.4 35.9004 26.3 36.1004C26.2 36.3004 25.4 39.7004 24.4 40.6004C23.9 41.0004 22.2 42.5004 21.7 42.7004C21.2 42.9004 20.9 42.1004 20.5 42.7004C21.3 43.7004 22.2 44.7004 23 45.7004C23.1 45.8004 23.6 46.6004 23.8 46.6004C24.3 46.7004 23.9 45.7004 23.9 45.5004C24.1 45.1004 26.4 42.8004 27.4 42.6004C28.6 42.4004 30.4 41.9004 31.9 42.0004C32.2 42.1004 31.5 42.0004 31.9 42.0004Z"
      fill="white" />
    <path
      d="M25.6 22.9C21.6 22.7 23.2 18.9 26 18.1C28.6 17.3 34.1 19.8 35.8 21.5C33 22.4 29.4 22.2 26.4 22.4C26.2 19.2 25.4 20.3 25.6 22.9Z"
      fill="#DC6243" />
    <path
      d="M26.6001 27.6996C24.6001 26.0996 25.2001 22.3996 28.4001 23.5996C32.4001 25.6996 27.5001 26.7996 26.6001 27.6996Z"
      fill="#DC6243" />
    <path d="M35.1 35.4002C26.5 35.3002 32.3 22.1002 35.2 22.9002C38.6 24.0002 38.2 35.5002 35.1 35.4002Z"
      fill="#DC6243" />
    <path
      d="M41.2001 31.1003C40.4001 33.6003 38.8001 34.1003 39.0001 31.0003C39.2001 27.5003 41.5001 28.3003 43.9001 27.0003C45.9001 25.9003 47.0001 21.8003 50.5001 24.2003C52.1001 25.3003 53.9001 24.4003 54.4001 26.0003C54.4001 25.9003 49.9001 36.3003 52.4001 36.3003C47.4001 36.3003 49.6001 30.4003 51.5001 26.4003C49.7001 27.3003 46.7001 33.1003 49.1001 34.0003C47.8001 35.7003 43.9001 37.9003 41.9001 36.3003C40.4001 35.2003 41.2001 33.1003 41.2001 31.1003Z"
      fill="#DC6243" />
    <path
      d="M45.3 40.6998C41.8 41.6998 37.2 39.4998 42.8 38.3998C46.3 37.6998 50 39.0998 45.3 40.6998C45.4 40.6998 45.2 40.6998 45.3 40.6998Z"
      fill="#DC6243" />
    <path d="M49.7 40.6003C49 38.9003 50.3 37.0003 52.4 38.4003C54.2 39.6003 51.5 41.5003 49.7 40.6003Z"
      fill="#DC6243" />
    <path d="M46.7 45.2C44.3 44.5 36.2 44.6 41.5 42.4C43.2 41.8 51.7 42.6 46.7 45.2Z" fill="#DC6243" />
    <path
      d="M49.9 44.8997C49.9 43.8997 49.4 42.1997 51.3 42.9997C53.5 43.7997 49.9 45.5997 49.9 44.8997C49.9 44.8997 49.9 44.6997 49.9 44.8997Z"
      fill="#DC6243" />
    <path
      d="M57.2001 48.4998C55.8001 47.2998 54.3001 47.1998 53.0001 48.4998C51.2001 45.1998 44.7001 46.2998 41.6001 45.7998C43.2001 49.8998 56.4001 50.6998 57.2001 48.4998Z"
      fill="#DC6243" />
    <path
      d="M55.2999 50.9998C52.0999 50.8998 48.6 50.3998 45.7 51.0998C47.6 51.5998 52.0999 52.8998 47.8999 53.9998C49.3999 56.1998 51.8999 55.9998 53.4999 54.0998C52.7999 53.7998 52.4999 53.3998 51.8999 52.9998C53.4999 52.6998 55.0999 51.7998 55.2999 50.9998Z"
      fill="#DC6243" />
    <path
      d="M58.9 47.0996C53.6 43.9996 54.9 41.6996 59.3 39.4996C61.6 38.3996 66.6 34.2996 68.7 35.5996C65.4 39.4996 62.1 43.2996 58.9 47.0996Z"
      fill="#DC6243" />
    <path
      d="M55.0999 39.8002C50.5999 35.2002 61.7999 35.6002 63.5999 34.0002C64.8999 34.4002 74.3999 25.7002 76.6999 26.3002C74.9999 28.2002 71.4999 34.4002 68.8999 34.4002C66.8999 34.4002 64.8999 34.1002 63.3999 35.5002C61.1999 37.6002 57.4999 38.6002 55.0999 39.8002Z"
      fill="#F49774" />
    <path
      d="M56.6 34.1996C54.1 35.4996 51.8 30.2996 56.1 30.7996C58.9 31.0996 61.8 30.5996 64.4 30.9996C62.4 33.2996 59.7 34.5996 56.6 34.1996Z"
      fill="#F4B1A4" />
    <path
      d="M69.2001 52.4996C69.4001 53.0996 69.5001 53.7996 69.4001 54.4996C69.3001 55.3996 68.4001 57.3996 67.2001 56.7996C66.0001 56.1996 65.0001 55.0996 64.0001 54.1996C64.8001 53.2996 65.5001 52.4996 66.9001 52.8996C67.3001 52.9996 67.6001 52.8996 67.2001 52.5996C66.8001 52.3996 64.1001 50.5996 63.9001 50.7996C63.6001 51.0996 64.4001 51.6996 64.1001 52.2996C63.9001 52.6996 63.5001 53.0996 63.2001 53.4996C62.5001 52.8996 61.3001 52.1996 62.1001 51.1996C62.6001 50.4996 63.4001 49.9996 64.2001 49.8996C64.8001 49.7996 66.0001 50.2996 66.2001 49.6996C65.1001 49.1996 64.0001 48.6996 62.9001 48.0996C63.1001 48.8996 59.6001 52.5996 58.8001 53.5996C58.7001 53.6996 58.1001 54.1996 58.1001 54.3996C58.1001 54.7996 58.7001 54.4996 58.8001 54.4996C59.3001 54.2996 65.6001 59.5996 65.8001 59.9996C65.9001 60.2996 65.6001 60.5996 65.8001 60.6996C65.8001 60.6996 66.0001 60.8996 66.1001 60.8996C66.5001 60.3996 70.6001 54.8996 71.5001 54.6996C70.7001 53.4996 69.9001 52.2996 69.1001 50.9996C68.5001 51.2996 69.1001 51.9996 69.2001 52.4996Z"
      fill="white" />
    <path
      d="M62.9999 59.2004C60.8999 57.9004 57.3999 60.5004 56.8999 60.7004C55.8999 61.2004 55.1 60.2004 55.6 59.2004C56.1 58.4004 56.9999 58.0004 57.8999 57.9004C58.1999 57.9004 59.1999 58.1004 59.3999 57.9004C59.4999 57.7004 59.5999 57.7004 59.3999 57.6004C58.4999 57.0004 57.6999 56.4004 56.7999 55.9004C56.5999 57.0004 55.4 57.6004 54.7 58.3004C53.9 59.2004 53.2 60.2004 53.2 61.5004C53.2 62.6004 53.8999 63.6004 54.8999 64.2004C55.9999 64.8004 57.2 64.3004 58.2 63.7004C58.8 63.3004 59.5 62.8004 60.1 62.5004C61.1 62.0004 62.4 62.4004 62.1 63.8004C61.8 64.9004 60.7 65.9004 59.7 66.1004C59.1 66.3004 58.3999 66.2004 57.7999 66.0004C57.3999 65.9004 56.8 65.3004 56.6 65.9004C57.8 66.7004 58.9 67.6004 60.1 68.4004C60.2 67.6004 60.6 67.3004 61.2 66.8004C61.9 66.2004 62.6 65.5004 63.2 64.7004C64.4 63.0004 64.7999 60.6004 62.9999 59.2004Z"
      fill="white" />
    <path d="M63 59.1999C64 59.7999 62.4 58.6999 63 59.1999V59.1999Z" fill="white" />
    <path
      d="M99.7001 19.6003C99.0001 20.3003 91.3001 17.3003 90.7001 16.8003C90.4001 16.7003 90.4001 15.5003 90.0001 16.0003C89.6001 16.5003 89.2001 17.0003 88.8001 17.5003C88.4001 18.0003 88.0001 18.5003 87.5001 19.0003C87.2001 19.3003 87.0001 19.5003 87.5001 19.7003C88.3001 19.3003 92.9001 27.0003 92.5001 28.2003C91.8001 28.6003 85.6001 23.1003 85.4001 22.8003C85.3001 22.7003 85.7001 21.8003 85.2001 21.9003C85.0001 21.9003 84.5001 22.8003 84.3001 23.0003C84.0001 23.4003 83.7001 23.7003 83.4001 24.1003C83.7001 24.6003 83.9001 24.1003 84.4001 24.1003C84.8001 24.2003 86.2001 25.4003 86.6001 25.8003C85.9001 25.8003 83.9001 25.9003 83.7001 25.9003C82.8001 26.0003 83.3001 25.2003 82.7001 25.0003C81.9001 25.9003 81.2001 26.8003 80.4001 27.8003C80.0001 28.3003 79.5001 28.9003 79.1001 29.4003C79.0001 29.5003 79.1001 29.4003 79.1001 29.5003C79.4001 29.8003 79.2001 29.7003 79.7001 29.5003C80.2001 29.3003 86.3001 34.4003 86.5001 34.7003C86.9001 35.1003 86.3001 35.7003 86.9001 35.9003C87.5001 35.2003 88.1001 34.4003 88.7001 33.7003C88.8001 33.6003 88.8001 33.6003 88.7001 33.5003C88.3001 33.1003 88.2001 33.7003 87.7001 33.7003C87.2001 33.6003 83.3001 30.3003 81.8001 29.1003C83.6001 29.0003 89.1001 28.8003 90.0001 28.8003C90.3001 28.8003 91.1001 29.7003 91.1001 30.0003C91.0001 30.4003 90.6001 30.6003 91.2001 30.8003C91.7001 30.2003 92.2001 29.7003 92.7001 29.1003L92.9001 28.8003C93.0001 28.7003 93.0001 28.7003 93.1001 28.5003L93.3001 28.3003C93.7001 27.8003 95.1001 26.3003 94.9001 26.2003C94.4001 25.8003 94.2001 26.7003 93.6001 26.1003C93.3001 25.9003 92.4001 24.3003 92.2001 23.9003C91.9001 23.5003 92.8001 23.0003 93.2001 22.8003C94.0001 22.3003 96.4001 21.6003 96.7001 23.1003C96.7001 23.4003 96.4001 23.6003 96.6001 23.8003C96.6001 23.8003 96.8001 24.0003 96.9001 24.0003C97.1001 23.8003 99.3001 21.2003 100.2 20.0003C99.9001 19.8003 99.8001 19.7003 99.7001 19.6003ZM92.3001 21.8003C92.4001 21.8003 92.5001 21.7003 92.3001 21.8003C92.0001 22.0003 91.6001 22.3003 91.3001 22.6003C90.8001 21.7003 90.3001 20.8003 89.7001 19.9003C90.9001 20.4003 92.1001 20.9003 93.2001 21.4003C93.0001 21.5003 92.7001 21.6003 92.3001 21.8003Z"
      fill="white" />
    <path
      d="M82.6 33.0004C80.2 31.0004 77 31.6004 75 33.8004C73.1 36.1004 73.3 39.5004 75.6 41.4004C77.9 43.3004 81.3 42.8004 83.2 40.6004C85.1 38.3004 85 34.9004 82.6 33.0004ZM82.3 39.6004C82.3 39.6004 82.3 39.7004 82.3 39.6004C81 40.9004 78.9 39.7004 77.8 38.9004C76.7 38.1004 74.7 36.3004 75.9 34.8004C77 33.5004 79 34.6004 80.1 35.3004C81.3 36.1004 83.5 37.9004 82.4 39.5004C82.5 39.4004 82.5 39.4004 82.3 39.6004Z"
      fill="white" />
    <path d="M82.6 32.9995C83.8 33.9995 82.3 32.7995 82.6 32.9995V32.9995Z" fill="white" />
    <path
      d="M82.3 39.6996C82.3 39.5996 82.3 39.5996 82.3 39.6996C82.4 39.5996 82.4 39.5996 82.4 39.5996C82.3 39.5996 82.3 39.6996 82.3 39.6996Z"
      fill="white" />
    <path
      d="M76 42.1002C76.1 42.2002 76.3 42.4002 76 42.1002C73.1 39.9002 69.7 40.5002 67.5 43.2002C66.5 44.4002 65.5 45.6002 64.5 46.8002C64.9 47.3002 65.3 46.7002 65.8 47.0002C66.2 47.3002 72 52.1002 72.1 52.4002C72.3 52.9002 71.8 52.9002 72.2 53.3002C72.4 53.4002 76.7 48.1002 77.1 47.1002C78 45.3002 77.4 43.4002 76 42.1002ZM74.7 48.9002C74.5 49.2002 74.7 49.0002 74 49.6002C73.7 49.9002 67.6 44.9002 67.8 44.7002C68.6 43.8002 70.4 43.1002 71.4 43.4002C73.6 43.9002 76.6 46.6002 74.7 48.9002Z"
      fill="white" />
  </symbol>

  <symbol viewBox="0 0 102 84" id="pic-logo-sedona-mobile">
    <path d="M0 0L50.6 59.1L101.7 0H0Z" fill="#23A9E1" />
    <path d="M50.9 0H0V22.5L50.6 84L50.9 83.6L101.6 23.2V0H50.9ZM50.9 57.1L50.6 57.5L3.7 1.8H50.9H98.1L50.9 57.1Z"
      fill="#491213" />
    <path
      d="M50.6 57.5L50.9 57.1L78.5 24.8C71.6 25.7 66.6 30.9 59.9 29.8C56.5 29.2 56.4 27.3 55.4 25.3C54.7 23.8 53.5 24 51.9 23.4C50.5 22.8 49.6 21.7 46.7 22.3C44.2 22.9 43.9 26.8 40.7 26.6C39 26.5 38.9 24.1 36.5 21.1C30.2 13.5 24.3 14.6 20.3 21.6L50.6 57.5Z"
      fill="#491213" />
    <path
      d="M23.3 32.2C23.8 32.8 24.2 33.5 24.1 34.3C24 34.9 23.2 35.8 23.8 36.1C24.5 35.2 25.3 34.2 26 33.3C25.4 33.1 20.6 27.5 20.6 26.8C19.5 27.4 18.5 28 17.4 28.5C17.6 29.2 18.7 28.5 19.3 28.5C20.1 28.6 20.7 29.1 21.3 29.7C19.6 31.1 15.4 34.7 14.9 34.8C14.7 34.8 13.8 34.2 13.8 34.7C13.8 35 14.7 35.7 14.8 35.9C15.5 36.8 16.3 37.7 17 38.6C17.6 38.3 16.9 37.9 17.2 37.4C17.5 37.1 22.1 33.2 23.3 32.2Z"
      fill="white" />
    <path
      d="M18 25.3C18.4 25.2 18.6 25.7 19 25.2C18.2 24.2 17.4 23.3 16.6 22.3C16.2 21.9 15.8 21.4 15.9 22.3C16 22.9 9.8 28 9.4 28.1C8.9 28.3 8.6 27.7 8.3 28.2C9 29.1 9.8 29.9 10.5 30.8C10.7 31.1 11 31.4 11.2 31.7C11.5 32 11.4 31 11.4 31.1C11.3 30.6 11.9 30.2 12.3 29.9C13.8 28.5 17.6 25.3 18 25.3Z"
      fill="white" />
    <path
      d="M9.2 24.4C7.4 24.9 5.6 24.2 5 22.4C4.5 20.6 5.6 18.6 7.1 17.6C8.5 16.6 10.7 16.6 11.5 18.4C11.8 19.2 11.7 20.1 11.4 20.9C11.2 21.4 10.8 21.9 11.5 22.2C12.4 21.1 13.2 20 14.1 18.9C13 18.3 12.6 17.2 11.8 16.3C10.9 15.2 9.7 14.2 8.3 14C5.4 13.6 2.7 16.6 2.5 19.2C2.4 20.7 2.9 22 3.7 23.2C4.5 24.2 5.6 24.8 6.1 26C6.4 26.1 8.8 25 9.4 24.7C9.3 24.6 9.3 24.4 9.2 24.4C8.5 24.6 9.2 24.4 9.2 24.4Z"
      fill="white" />
    <path
      d="M48.5 60.8C47.3 60 44.5 56.1 43.9 55.5C43.8 55.4 43.7 55.2 43.6 55.1C43.6 55.1 43.3 55.3 43.4 55.3C43.2 55.4 43.5 55.9 43.3 56.2C42.5 57.4 37.5 61.2 37.3 61.4C36.7 61.8 36.1 61.2 35.8 61.7C36.5 62.6 38.6 65.2 38.8 65.3C39.3 65.4 38.9 64.5 39 64.3C39.1 63.9 41.6 61.9 42.5 61.1C42.8 60.8 43.2 61.5 43.4 61.8C43.7 62.3 43.9 62.8 43.7 63.4C43.6 63.8 43 64.3 43.4 64.6C44 63.9 45.8 61.8 46 61.6C46.3 61.3 45.4 61.6 45.5 61.5C45.1 61.7 44.8 61.7 44.4 61.5C44.3 61.4 43.3 60.4 43.4 60.3C43.8 59.9 44.4 59.3 44.9 59.2C45.8 59 46.5 60.7 46.6 61.3C46.7 61.9 46.7 62.5 46.5 63.1C46.4 63.5 46 63.8 46.5 64C47.2 63 47.9 62.1 48.6 61.1C48.8 60.9 48.6 60.8 48.5 60.8C48.4 60.7 48.7 60.8 48.5 60.8Z"
      fill="white" />
    <path
      d="M38.3 56.6C40.5 54.7 40.8 51.5 39.1 49.3C37.2 46.8 33.7 46.2 31.3 48.2C29.1 50.1 28.8 53.2 30.5 55.5C32.5 58.2 35.7 58.5 38.3 56.6C39.5 55.7 38.2 56.7 38.3 56.6ZM37.8 51.9C37.2 53.4 35.6 55 34.1 55.6C32.3 56.3 31 54.8 31.7 53C32.3 51.5 33.9 49.9 35.4 49.3C37.3 48.6 38.5 50.2 37.8 51.9C37.5 52.8 37.9 51.7 37.8 51.9Z"
      fill="white" />
    <path
      d="M31.9 42C32.4 42.1 32.8 42.6 33.2 42C32.5 41.1 31.7 40.2 31 39.4C30.4 39.7 31 39.9 30.8 40.4C30.6 40.8 28.2 41.2 27.6 41.3C27.8 40.7 28.5 38.7 28.8 38.5C29.3 38.1 29.7 38.9 30.1 38.4C29.2 37.3 28.3 36.2 27.4 35.1C27.1 34.7 26.8 34.1 26.4 34.4C26.4 34.4 26.4 35.9 26.3 36.1C26.2 36.3 25.4 39.7 24.4 40.6C23.9 41 22.2 42.5 21.7 42.7C21.2 42.9 20.9 42.1 20.5 42.7C21.3 43.7 22.2 44.7 23 45.7C23.1 45.8 23.6 46.6 23.8 46.6C24.3 46.7 23.9 45.7 23.9 45.5C24.1 45.1 26.4 42.8 27.4 42.6C28.6 42.3 30.4 41.8 31.9 42C32.2 42.1 31.5 42 31.9 42Z"
      fill="white" />
    <path
      d="M69.2 52.4C69.4 53 69.5 53.7 69.4 54.4C69.3 55.3 68.4 57.3 67.2 56.7C66 56.1 65 55 64 54.1C64.8 53.2 65.5 52.4 66.9 52.8C67.3 52.9 67.6 52.8 67.2 52.5C66.8 52.3 64.1 50.5 63.9 50.7C63.6 51 64.4 51.6 64.1 52.2C63.9 52.6 63.5 53 63.2 53.4C62.5 52.8 61.3 52.1 62.1 51.1C62.6 50.4 63.4 49.9 64.2 49.8C64.8 49.7 66 50.2 66.2 49.6C65.1 49.1 64 48.6 62.9 48C63.1 48.8 59.6 52.5 58.8 53.5C58.7 53.6 58.1 54.1 58.1 54.3C58.1 54.7 58.7 54.4 58.8 54.4C59.3 54.2 65.6 59.5 65.8 59.9C65.9 60.2 65.6 60.5 65.8 60.6C65.8 60.6 66 60.8 66.1 60.8C66.5 60.3 70.6 54.8 71.5 54.6C70.7 53.4 69.9 52.2 69.1 50.9C68.5 51.3 69.1 52 69.2 52.4Z"
      fill="white" />
    <path
      d="M63 59.2C60.9 57.9 57.4 60.5 56.9 60.7C55.9 61.2 55.1 60.2 55.6 59.2C56.1 58.4 57 58 57.9 57.9C58.2 57.9 59.3 58.1 59.4 57.9C59.5 57.7 59.6 57.7 59.4 57.6C58.5 57 57.7 56.4 56.8 55.9C56.6 57 55.4 57.6 54.7 58.3C53.9 59.2 53.2 60.2 53.2 61.5C53.2 62.6 53.9 63.6 54.9 64.2C56 64.8 57.2 64.3 58.2 63.7C58.8 63.3 59.5 62.8 60.1 62.5C61.1 62 62.4 62.4 62.1 63.8C61.8 64.9 60.7 65.9 59.7 66.1C59.1 66.3 58.4 66.2 57.8 66C57.4 65.9 56.8 65.3 56.6 65.9C57.8 66.7 58.9 67.6 60.1 68.4C60.2 67.6 60.6 67.3 61.2 66.8C61.9 66.2 62.6 65.5 63.2 64.7C64.4 63 64.8 60.6 63 59.2Z"
      fill="white" />
    <path d="M63 59.2C64 59.7 62.4 58.7 63 59.2V59.2Z" fill="white" />
    <path
      d="M99.7 19.6C99 20.3 91.3 17.3 90.7 16.8C90.4 16.7 90.4 15.5 90 16C89.6 16.5 89.2 17 88.8 17.5C88.4 18 88 18.5 87.5 19C87.2 19.3 87 19.5 87.5 19.7C88.3 19.3 92.9 27 92.5 28.2C91.8 28.6 85.6 23.1 85.4 22.8C85.3 22.7 85.7 21.8 85.2 21.9C85 21.9 84.5 22.8 84.3 23C84 23.4 83.7 23.7 83.4 24.1C83.7 24.6 83.9 24.1 84.4 24.1C84.8 24.2 86.2 25.4 86.6 25.8C85.9 25.8 83.9 25.9 83.7 25.9C82.8 26 83.3 25.2 82.7 25C81.9 25.9 81.2 26.8 80.4 27.8C80 28.3 79.5 28.9 79.1 29.4C79 29.5 79.1 29.4 79.2 29.5C79.5 29.8 79.3 29.7 79.8 29.5C80.3 29.3 86.4 34.4 86.6 34.7C87 35.2 86.4 35.7 87 35.9C87.6 35.2 88.2 34.4 88.8 33.7C88.9 33.6 88.9 33.6 88.8 33.5C88.4 33.1 88.3 33.7 87.8 33.7C87.3 33.6 83.4 30.3 81.9 29.1C83.7 29 89.2 28.8 90.1 28.8C90.4 28.8 91.2 29.7 91.2 30C91.1 30.4 90.7 30.6 91.3 30.8C91.8 30.2 92.3 29.7 92.8 29.1L93 28.8C93.1 28.7 93.1 28.7 93.2 28.5L93.4 28.3C93.8 27.8 95.2 26.3 95 26.1C94.5 25.7 94.3 26.6 93.7 26C93.4 25.8 92.5 24.2 92.3 23.8C92 23.4 92.9 22.9 93.3 22.7C94.1 22.2 96.5 21.5 96.8 23C96.8 23.3 96.5 23.5 96.7 23.7C96.7 23.7 96.9 23.9 97 23.9C97.2 23.7 99.4 21.1 100.3 19.9C99.9 19.8 99.8 19.7 99.7 19.6ZM92.3 21.8C92.4 21.7 92.5 21.7 92.3 21.8C92 22 91.6 22.3 91.3 22.6C90.8 21.7 90.3 20.8 89.7 19.9C90.9 20.4 92.1 20.9 93.2 21.4C93 21.4 92.7 21.6 92.3 21.8Z"
      fill="white" />
    <path
      d="M82.6 33C80.2 31 77 31.6 75 33.8C73.1 36.1 73.3 39.5 75.6 41.4C77.9 43.3 81.3 42.8 83.2 40.6C85.1 38.3 85 34.9 82.6 33ZM82.3 39.6C81 40.9 78.9 39.7 77.8 38.9C76.7 38.1 74.7 36.3 75.9 34.8C77 33.5 79 34.6 80.1 35.3C81.3 36.1 83.5 37.9 82.4 39.5C82.5 39.4 82.5 39.4 82.3 39.6Z"
      fill="white" />
    <path d="M82.6 33C83.8 34 82.3 32.8 82.6 33V33Z" fill="white" />
    <path d="M82.3 39.6C82.4 39.5 82.4 39.5 82.4 39.5C82.3 39.6 82.3 39.6 82.3 39.6Z" fill="white" />
    <path
      d="M76 42.1C76.1 42.2 76.3 42.3 76 42.1C73.1 39.9 69.7 40.5 67.5 43.2C66.5 44.4 65.5 45.6 64.5 46.8C64.9 47.3 65.3 46.7 65.8 47C66.2 47.3 72 52.1 72.1 52.4C72.3 52.9 71.8 52.9 72.2 53.3C72.4 53.4 76.7 48.1 77.1 47.1C78 45.3 77.4 43.3 76 42.1ZM74.7 48.9C74.5 49.2 74.7 49 74 49.6C73.7 49.9 67.6 44.9 67.8 44.7C68.6 43.8 70.4 43.1 71.4 43.4C73.6 43.8 76.6 46.5 74.7 48.9Z"
      fill="white" />
    <path
      d="M50.6 57.5L50.9 57.1L78.5 24.8C71.6 25.7 66.6 30.9 59.9 29.8C56.5 29.2 56.4 27.3 55.4 25.3C54.7 23.8 53.5 24 51.9 23.4C50.5 22.8 49.6 21.7 46.7 22.3C44.2 22.9 43.9 26.8 40.7 26.6C39 26.5 38.9 24.1 36.5 21.1C30.2 13.5 24.3 14.6 20.3 21.6L50.6 57.5Z"
      fill="#491213" />
    <path d="M46.5 70.9L50.6 64.4L54.6 70.9L50.6 77.4L46.5 70.9Z" fill="#23A9E1" />
    <path
      d="M23.3 32.3C23.8 32.9 24.2 33.6 24.1 34.4C24 35 23.2 36 23.8 36.2C24.5 35.3 25.3 34.3 26 33.4C25.4 33.2 20.6 27.6 20.6 26.9C19.5 27.5 18.5 28.1 17.4 28.6C17.6 29.3 18.7 28.6 19.3 28.6C20.1 28.7 20.7 29.2 21.3 29.8C19.6 31.2 15.4 34.8 14.9 34.9C14.7 34.9 13.8 34.3 13.8 34.8C13.8 35.1 14.7 35.8 14.8 36C15.5 36.9 16.3 37.8 17 38.7C17.6 38.4 16.9 38 17.2 37.5C17.5 37.1 22.1 33.2 23.3 32.3Z"
      fill="white" />
    <path
      d="M18 25.3C18.4 25.2 18.6 25.7 19 25.2C18.2 24.2 17.4 23.3 16.6 22.3C16.2 21.9 15.8 21.4 15.9 22.3C16 22.9 9.8 28 9.4 28.1C8.9 28.3 8.6 27.7 8.3 28.2C9 29.1 9.8 29.9 10.5 30.8C10.7 31.1 11 31.4 11.2 31.7C11.5 32 11.4 31 11.4 31.1C11.3 30.6 11.9 30.2 12.3 29.9C13.8 28.6 17.6 25.3 18 25.3Z"
      fill="white" />
    <path
      d="M9.2 24.4C7.4 24.9 5.5 24.2 5 22.4C4.5 20.6 5.6 18.6 7.1 17.6C8.5 16.6 10.7 16.6 11.5 18.4C11.8 19.2 11.7 20.1 11.4 20.9C11.2 21.4 10.8 21.9 11.5 22.2C12.4 21.1 13.2 20 14.1 18.9C13 18.3 12.6 17.2 11.8 16.3C10.9 15.2 9.7 14.2 8.3 14C5.4 13.6 2.7 16.6 2.5 19.2C2.4 20.7 2.9 22 3.7 23.2C4.5 24.2 5.6 24.8 6.1 26C6.4 26.1 8.8 25 9.4 24.7C9.3 24.6 9.3 24.5 9.2 24.4C8.5 24.6 9.2 24.4 9.2 24.4Z"
      fill="white" />
    <path
      d="M48.5 60.8C47.3 60 44.5 56.1 43.9 55.5C43.8 55.4 43.7 55.2 43.6 55.1C43.6 55.1 43.3 55.3 43.4 55.3C43.2 55.4 43.5 55.9 43.3 56.2C42.5 57.4 37.5 61.2 37.3 61.4C36.7 61.8 36.1 61.2 35.8 61.7C36.5 62.6 38.6 65.2 38.8 65.3C39.3 65.4 38.9 64.5 39 64.3C39.1 63.9 41.6 61.9 42.5 61.1C42.8 60.8 43.2 61.5 43.4 61.8C43.7 62.3 43.9 62.8 43.7 63.4C43.6 63.8 43 64.3 43.4 64.6C44 63.9 45.8 61.8 46 61.6C46.3 61.3 45.4 61.6 45.5 61.5C45.1 61.7 44.8 61.7 44.4 61.5C44.3 61.4 43.3 60.4 43.4 60.3C43.8 59.9 44.4 59.3 44.9 59.2C45.8 59 46.5 60.7 46.6 61.3C46.7 61.9 46.7 62.5 46.5 63.1C46.4 63.5 46 63.8 46.5 64C47.2 63 47.9 62.1 48.6 61.1C48.8 60.9 48.6 60.8 48.5 60.8C48.4 60.7 48.7 60.8 48.5 60.8Z"
      fill="white" />
    <path
      d="M38.3 56.6C40.5 54.7 40.8 51.5 39.1 49.3C37.2 46.8 33.7 46.2 31.3 48.2C29.1 50.1 28.8 53.2 30.5 55.5C32.5 58.2 35.7 58.5 38.3 56.6C39.5 55.7 38.2 56.7 38.3 56.6ZM37.8 51.9C37.2 53.4 35.6 55 34.1 55.6C32.3 56.3 31 54.8 31.7 53C32.4 51.5 33.9 49.9 35.4 49.3C37.3 48.6 38.5 50.2 37.8 51.9C37.4 52.8 37.9 51.7 37.8 51.9Z"
      fill="white" />
    <path
      d="M31.9 42C32.4 42.1 32.8 42.5 33.2 42C32.5 41.1 31.7 40.2 31 39.4C30.4 39.7 31 39.9 30.8 40.4C30.6 40.8 28.2 41.2 27.6 41.3C27.8 40.7 28.5 38.7 28.8 38.5C29.3 38.1 29.7 38.9 30.1 38.4C29.2 37.3 28.3 36.2 27.4 35.1C27.1 34.7 26.8 34.1 26.4 34.4C26.4 34.4 26.4 35.9 26.3 36.1C26.2 36.3 25.4 39.7 24.4 40.6C23.9 41 22.2 42.5 21.7 42.7C21.2 42.9 20.9 42.1 20.5 42.7C21.3 43.7 22.2 44.7 23 45.7C23.1 45.8 23.6 46.6 23.8 46.6C24.3 46.7 23.9 45.7 23.9 45.5C24.1 45.1 26.4 42.8 27.4 42.6C28.6 42.4 30.4 41.9 31.9 42C32.2 42.1 31.5 42 31.9 42Z"
      fill="white" />
    <path
      d="M25.6 22.9C21.6 22.7 23.2 18.9 26 18.1C28.6 17.3 34.1 19.8 35.8 21.5C33 22.4 29.4 22.2 26.4 22.4C26.2 19.2 25.4 20.3 25.6 22.9Z"
      fill="#DC6243" />
    <path d="M26.6 27.7C24.6 26.1 25.2 22.4 28.4 23.6C32.4 25.7 27.5 26.8 26.6 27.7Z" fill="#DC6243" />
    <path d="M35.1 35.4C26.5 35.3 32.3 22.1 35.2 22.9C38.6 24 38.2 35.5 35.1 35.4Z" fill="#DC6243" />
    <path
      d="M41.2 31.1C40.4 33.6 38.8 34.1 39 31C39.2 27.5 41.5 28.3 43.9 27C45.9 25.9 47 21.8 50.5 24.2C52.1 25.3 53.9 24.4 54.4 26C54.4 25.9 49.9 36.3 52.4 36.3C47.4 36.3 49.6 30.4 51.5 26.4C49.7 27.3 46.7 33.1 49.1 34C47.8 35.7 43.9 37.9 41.9 36.3C40.4 35.2 41.2 33.1 41.2 31.1Z"
      fill="#DC6243" />
    <path d="M45.3 40.7C41.8 41.7 37.2 39.5 42.8 38.4C46.3 37.7 50 39.1 45.3 40.7C45.4 40.7 45.2 40.7 45.3 40.7Z"
      fill="#DC6243" />
    <path d="M49.7 40.6C49 38.9 50.3 37 52.4 38.4C54.2 39.6 51.5 41.5 49.7 40.6Z" fill="#DC6243" />
    <path d="M46.7 45.2C44.3 44.5 36.2 44.6 41.5 42.4C43.2 41.8 51.7 42.6 46.7 45.2Z" fill="#DC6243" />
    <path d="M49.9 44.9C49.9 43.9 49.4 42.2 51.3 43C53.5 43.8 49.9 45.6 49.9 44.9C49.9 44.9 49.9 44.7 49.9 44.9Z"
      fill="#DC6243" />
    <path d="M57.2 48.5C55.8 47.3 54.3 47.2 53 48.5C51.2 45.2 44.7 46.3 41.6 45.8C43.2 49.9 56.4 50.7 57.2 48.5Z"
      fill="#DC6243" />
    <path
      d="M55.3 51C52.1 50.9 48.6 50.4 45.7 51.1C47.6 51.6 52.1 52.9 47.9 54C49.4 56.2 51.9 56 53.5 54.1C52.8 53.8 52.5 53.4 51.9 53C53.5 52.7 55.1 51.8 55.3 51Z"
      fill="#DC6243" />
    <path d="M58.9 47.1C53.6 44 54.9 41.7 59.3 39.5C61.6 38.4 66.6 34.3 68.7 35.6C65.4 39.5 62.1 43.3 58.9 47.1Z"
      fill="#DC6243" />
    <path
      d="M55.1 39.8C50.6 35.2 61.8 35.6 63.6 34C64.9 34.4 74.4 25.7 76.7 26.3C75 28.2 71.5 34.4 68.9 34.4C66.9 34.4 64.9 34.1 63.4 35.5C61.2 37.6 57.5 38.6 55.1 39.8Z"
      fill="#F49774" />
    <path d="M56.6 34.2C54.1 35.5 51.8 30.3 56.1 30.8C58.9 31.1 61.8 30.6 64.4 31C62.4 33.3 59.7 34.6 56.6 34.2Z"
      fill="#F4B1A4" />
    <path
      d="M69.2 52.5C69.4 53.1 69.5 53.8 69.4 54.5C69.3 55.4 68.4 57.4 67.2 56.8C66 56.2 65 55.1 64 54.2C64.8 53.3 65.5 52.5 66.9 52.9C67.3 53 67.6 52.9 67.2 52.6C66.8 52.4 64.1 50.6 63.9 50.8C63.6 51.1 64.4 51.7 64.1 52.3C63.9 52.7 63.5 53.1 63.2 53.5C62.5 52.9 61.3 52.2 62.1 51.2C62.6 50.5 63.4 50 64.2 49.9C64.8 49.8 66 50.3 66.2 49.7C65.1 49.2 64 48.7 62.9 48.1C63.1 48.9 59.6 52.6 58.8 53.6C58.7 53.7 58.1 54.2 58.1 54.4C58.1 54.8 58.7 54.5 58.8 54.5C59.3 54.3 65.6 59.6 65.8 60C65.9 60.3 65.6 60.6 65.8 60.7C65.8 60.7 66 60.9 66.1 60.9C66.5 60.4 70.6 54.9 71.5 54.7C70.7 53.5 69.9 52.3 69.1 51C68.5 51.3 69.1 52 69.2 52.5Z"
      fill="white" />
    <path
      d="M63 59.2C60.9 57.9 57.4 60.5 56.9 60.7C55.9 61.2 55.1 60.2 55.6 59.2C56.1 58.4 57 58 57.9 57.9C58.2 57.9 59.2 58.1 59.4 57.9C59.5 57.7 59.6 57.7 59.4 57.6C58.5 57 57.7 56.4 56.8 55.9C56.6 57 55.4 57.6 54.7 58.3C53.9 59.2 53.2 60.2 53.2 61.5C53.2 62.6 53.9 63.6 54.9 64.2C56 64.8 57.2 64.3 58.2 63.7C58.8 63.3 59.5 62.8 60.1 62.5C61.1 62 62.4 62.4 62.1 63.8C61.8 64.9 60.7 65.9 59.7 66.1C59.1 66.3 58.4 66.2 57.8 66C57.4 65.9 56.8 65.3 56.6 65.9C57.8 66.7 58.9 67.6 60.1 68.4C60.2 67.6 60.6 67.3 61.2 66.8C61.9 66.2 62.6 65.5 63.2 64.7C64.4 63 64.8 60.6 63 59.2Z"
      fill="white" />
    <path d="M63 59.2C64 59.8 62.4 58.7 63 59.2V59.2Z" fill="white" />
    <path
      d="M99.7 19.6C99 20.3 91.3 17.3 90.7 16.8C90.4 16.7 90.4 15.5 90 16C89.6 16.5 89.2 17 88.8 17.5C88.4 18 88 18.5 87.5 19C87.2 19.3 87 19.5 87.5 19.7C88.3 19.3 92.9 27 92.5 28.2C91.8 28.6 85.6 23.1 85.4 22.8C85.3 22.7 85.7 21.8 85.2 21.9C85 21.9 84.5 22.8 84.3 23C84 23.4 83.7 23.7 83.4 24.1C83.7 24.6 83.9 24.1 84.4 24.1C84.8 24.2 86.2 25.4 86.6 25.8C85.9 25.8 83.9 25.9 83.7 25.9C82.8 26 83.3 25.2 82.7 25C81.9 25.9 81.2 26.8 80.4 27.8C80 28.3 79.5 28.9 79.1 29.4C79 29.5 79.1 29.4 79.1 29.5C79.4 29.8 79.2 29.7 79.7 29.5C80.2 29.3 86.3 34.4 86.5 34.7C86.9 35.1 86.3 35.7 86.9 35.9C87.5 35.2 88.1 34.4 88.7 33.7C88.8 33.6 88.8 33.6 88.7 33.5C88.3 33.1 88.2 33.7 87.7 33.7C87.2 33.6 83.3 30.3 81.8 29.1C83.6 29 89.1 28.8 90 28.8C90.3 28.8 91.1 29.7 91.1 30C91 30.4 90.6 30.6 91.2 30.8C91.7 30.2 92.2 29.7 92.7 29.1L92.9 28.8C93 28.7 93 28.7 93.1 28.5L93.3 28.3C93.7 27.8 95.1 26.3 94.9 26.2C94.4 25.8 94.2 26.7 93.6 26.1C93.3 25.9 92.4 24.3 92.2 23.9C91.9 23.5 92.8 23 93.2 22.8C94 22.3 96.4 21.6 96.7 23.1C96.7 23.4 96.4 23.6 96.6 23.8C96.6 23.8 96.8 24 96.9 24C97.1 23.8 99.3 21.2 100.2 20C99.9 19.8 99.8 19.7 99.7 19.6ZM92.3 21.8C92.4 21.8 92.5 21.7 92.3 21.8C92 22 91.6 22.3 91.3 22.6C90.8 21.7 90.3 20.8 89.7 19.9C90.9 20.4 92.1 20.9 93.2 21.4C93 21.5 92.7 21.6 92.3 21.8Z"
      fill="white" />
    <path
      d="M82.6 33C80.2 31 77 31.6 75 33.8C73.1 36.1 73.3 39.5 75.6 41.4C77.9 43.3 81.3 42.8 83.2 40.6C85.1 38.3 85 34.9 82.6 33ZM82.3 39.6C82.3 39.6 82.3 39.7 82.3 39.6C81 40.9 78.9 39.7 77.8 38.9C76.7 38.1 74.7 36.3 75.9 34.8C77 33.5 79 34.6 80.1 35.3C81.3 36.1 83.5 37.9 82.4 39.5C82.5 39.4 82.5 39.4 82.3 39.6Z"
      fill="white" />
    <path d="M82.6 33C83.8 34 82.3 32.8 82.6 33V33Z" fill="white" />
    <path d="M82.3 39.7C82.3 39.6 82.3 39.6 82.3 39.7C82.4 39.6 82.4 39.6 82.4 39.6C82.3 39.6 82.3 39.7 82.3 39.7Z"
      fill="white" />
    <path
      d="M76 42.1C76.1 42.2 76.3 42.4 76 42.1C73.1 39.9 69.7 40.5 67.5 43.2C66.5 44.4 65.5 45.6 64.5 46.8C64.9 47.3 65.3 46.7 65.8 47C66.2 47.3 72 52.1 72.1 52.4C72.3 52.9 71.8 52.9 72.2 53.3C72.4 53.4 76.7 48.1 77.1 47.1C78 45.3 77.4 43.4 76 42.1ZM74.7 48.9C74.5 49.2 74.7 49 74 49.6C73.7 49.9 67.6 44.9 67.8 44.7C68.6 43.8 70.4 43.1 71.4 43.4C73.6 43.9 76.6 46.6 74.7 48.9Z"
      fill="white" />
  </symbol>

  <symbol viewBox="0 0 23 22" id="pic-btn-burger">
    <path d="M22.9 0H0V4H22.9V0Z" fill="#81B3D2" />
    <path d="M22.9 9H0V13H22.9V9Z" fill="#81B3D2" />
    <path d="M22.9 18H0V22H22.9V18Z" fill="#81B3D2" />
  </symbol>

  <symbol viewBox="0 0 116 28" id="pic-welcome">
    <path
      d="M17.0349 0H21.7605L21.024 27.456H12.1252L10.8978 16.1434L9.67037 27.456H0.710203L0.0351181 0H4.69932L5.06754 22.7475H5.55851L8.56569 0H13.2299L16.2371 22.7475H16.728L17.0349 0Z"
      fill="#81B3D3" />
    <path
      d="M36.5508 22.7475V27.5171H23.7243V0H36.5508V4.70849H28.3885V11.3126H34.8938V16.0211H28.3885V22.6864H36.5508V22.7475Z"
      fill="#81B3D3" />
    <path d="M49.6842 22.7475V27.5171H38.4533V0H43.1175V22.7475H49.6842Z" fill="#81B3D3" />
    <path
      d="M59.6263 17.3664L64.3519 16.2657V24.582C64.3519 26.1719 63.0017 27.456 61.4675 27.456H54.4098C52.8141 27.456 51.5253 26.1107 51.5253 24.582V2.87401C51.5253 1.28413 52.8141 0 54.4098 0H61.4675C63.0017 0 64.3519 1.28413 64.3519 2.87401V8.43859L59.6263 9.53928V4.64734H56.2509V22.6864H59.6263V17.3664Z"
      fill="#81B3D3" />
    <path
      d="M77.117 0C78.6513 0 80.0015 1.28413 80.0015 2.87401V24.5208C80.0015 26.1107 78.6513 27.3948 77.117 27.3948H70.0594C68.4637 27.3948 67.1749 26.0496 67.1749 24.5208V2.87401C67.1749 1.28413 68.4637 0 70.0594 0H77.117ZM75.2759 4.70849H71.9005V22.7475H75.2759V4.70849Z"
      fill="#81B3D3" />
    <path
      d="M95.3443 0H100.009V27.456H95.3443V13.942L93.4418 20.913H88.839L86.9979 13.942V27.456H82.3336V0H86.9979L91.1711 13.2694L95.3443 0Z"
      fill="#81B3D3" />
    <path
      d="M115.167 22.7475V27.5171H102.341V0H115.167V4.70849H107.005V11.3126H113.51V16.0211H107.005V22.6864H115.167V22.7475Z"
      fill="#81B3D3" />
  </symbol>

  <symbol viewBox="0 0 18 3" id="pic-welcome-line">
    <path d="M17.8437 0.846924H0.107422V2.06991H17.8437V0.846924Z" fill="#766458" />
  </symbol>

  <symbol viewBox="0 0 108 19" id="pic-welcome-gorgeous">
    <path
      d="M14.385 9.80445L14.2623 9.92675C13.4031 10.844 12.4211 11.272 11.5006 11.272L13.219 8.27572C14.3236 6.38009 13.2803 4.54562 11.5619 4.54562C10.1504 4.54562 9.04573 5.09596 8.00242 6.93044L7.08185 8.52032L6.3454 9.80445L6.22266 9.92675C4.8725 11.4555 3.5837 12.6785 2.78588 12.6785C2.35628 12.6785 2.17217 12.3727 2.60176 11.7001L6.52952 4.85136H8.00242L8.55476 3.99527H7.02048L8.73887 0.998962H6.89774L5.17935 3.99527H3.52233L2.97 4.85136H4.62701L0.944748 11.2109C0.146925 12.5562 0.699264 13.8403 2.17217 13.8403C3.21548 13.8403 4.4429 13.0454 5.54758 11.9447C5.54758 14.2683 8.80024 14.7575 10.7641 12.2504H11.1937C12.2984 12.2504 14.0168 11.5778 14.9374 10.4771C14.9374 10.1713 14.6305 9.92675 14.385 9.80445ZM10.4573 9.92675H10.3959C9.78218 9.92675 9.29122 10.4159 9.29122 11.0274C9.29122 11.272 9.35258 11.4555 9.47532 11.6389V11.7001C8.61613 13.1677 6.52952 12.9231 7.57282 10.9663L8.98436 8.58147L9.84355 7.11388C11.1323 4.91251 12.9121 5.7686 11.8074 7.66423L10.4573 9.92675Z"
      fill="#766458" />
    <path
      d="M39.854 9.80421L39.7312 9.9265C38.3811 11.4552 36.7241 12.6782 35.4353 12.6782C34.3306 12.6782 33.6555 11.9444 34.4533 10.4768L34.6374 10.1711C35.8035 10.6603 38.0742 10.4157 39.4244 8.03088L39.6699 7.60284C40.6518 5.89066 39.7312 4.66767 38.197 4.66767C36.7241 4.66767 35.558 5.46261 34.7602 6.80789L32.9804 9.86535L32.8577 9.98766C31.5075 11.5164 30.2187 12.7394 29.4209 12.7394C28.9913 12.7394 28.8072 12.4336 29.2368 11.761L31.8757 7.11364C32.6736 5.70721 31.9371 4.72882 30.8938 4.72882C30.096 4.72882 29.2368 5.15687 28.3162 6.13525L31.262 1.05987H29.4209L24.3271 9.80421L24.2044 9.9265C22.8542 11.4552 21.5654 12.6782 20.7676 12.6782C20.338 12.6782 20.1539 12.3725 20.5835 11.6998L24.5112 4.85112H25.9841L26.5365 3.99503H25.0022L26.7206 0.998718H24.8794L23.1611 3.99503H21.504L20.9517 4.85112H22.6087L18.9265 11.2106C18.1286 12.5559 18.681 13.8401 20.1539 13.8401C20.8903 13.8401 21.6882 13.4732 22.486 12.8617L21.995 13.6566H23.8361L26.5978 8.82582C29.4209 5.27917 30.6483 5.76836 29.9119 7.11364L27.5184 11.2718C26.7206 12.6171 27.2729 13.9012 28.7458 13.9012C29.8505 13.9012 31.0779 13.0451 32.1826 11.9444C32.244 13.1063 33.2259 13.9012 34.6988 13.9012C36.7854 13.9012 38.872 12.3113 40.3449 10.538C40.4063 10.1711 40.0995 9.92651 39.854 9.80421ZM36.3558 7.23594C37.3991 5.40146 39.3016 5.70721 38.197 7.60284L37.9515 8.03088C37.0923 9.49846 35.8649 9.49846 35.1898 9.25386L36.3558 7.23594Z"
      fill="#766458" />
    <path
      d="M106.81 9.80442L106.687 9.92672C106.012 10.7217 105.214 11.3943 104.478 11.9446C105.091 10.1713 104.907 7.5419 106.073 5.15708L104.723 4.42329C103.987 5.46283 102.33 7.84765 100.611 9.80442L100.488 9.92672C99.1383 11.4554 97.8495 12.6784 97.0517 12.6784C96.6221 12.6784 96.4379 12.3727 96.8675 11.7L100.795 4.85134H98.9542L95.7015 10.5382C94.29 11.8223 93.2466 12.495 92.8784 12.3727C92.4488 12.1892 92.8784 11.5166 93.1239 11.0886L96.6834 4.85134H94.8423L91.9579 9.80442L91.8351 9.92672C90.9759 10.844 89.994 11.272 89.0734 11.272L90.7918 8.27569C91.8965 6.38007 90.8532 4.54559 89.1348 4.54559C87.7233 4.54559 86.6186 5.09593 85.5753 6.93041L84.6547 8.52029L83.9183 9.80442L83.7955 9.92672C82.4453 11.4554 80.7883 12.6784 79.4995 12.6784C78.3949 12.6784 77.7198 11.9446 78.5176 10.4771L78.7017 10.1713C79.8678 10.6605 82.1385 10.4159 83.4887 8.03109L83.7341 7.60305C84.7161 5.89087 83.7955 4.66789 82.2612 4.66789C80.7883 4.66789 79.6223 5.46283 78.8245 6.80811L77.0447 9.86557L76.9219 9.98787C75.3877 11.7612 74.0989 12.8619 72.626 13.4734L76.7378 6.44122H75.6332C75.6332 5.70742 74.8353 4.66789 73.7307 4.66789C72.7487 4.66789 71.3372 5.46283 70.6007 6.80811L68.821 9.86557L68.6982 9.98787C67.3481 11.5166 66.0593 12.7396 65.2615 12.7396C64.8319 12.7396 64.6477 12.4338 65.0773 11.7612L66.9185 8.58144C67.5322 7.48075 67.2253 6.80811 66.673 6.07432L65.6297 4.85134C65.3842 4.54559 65.3842 4.11755 65.7524 3.8118L64.7705 2.77226C63.7272 3.6895 63.6658 4.72904 64.2795 5.58513L64.4636 5.76857C63.6658 6.93041 62.5611 8.45914 61.3337 9.86557L61.211 9.98787C60.3518 10.9051 59.3698 11.3332 58.4493 11.3332L60.1677 8.33684C61.2723 6.44121 60.229 4.60674 58.5106 4.60674C57.0991 4.60674 55.9944 5.15708 54.9511 6.99156L54.0306 8.58144L53.2941 9.86557L53.1714 9.98787C51.6371 11.7612 50.3483 12.8619 48.8754 13.4734L52.9872 6.44122H51.8826C51.8826 5.70742 51.0847 4.66789 49.9801 4.66789C48.9981 4.66789 47.5866 5.46283 46.8501 6.80811L44.2726 11.272C43.4747 12.6173 44.0271 13.9014 45.5 13.9014C45.9909 13.9014 46.6047 13.6568 47.2797 13.2899L46.7888 14.146C44.3339 14.8798 42.7383 15.9193 42.7383 17.2646C42.7383 19.038 45.4386 19.4048 46.7888 17.1423L48.2003 14.7575C49.6732 14.3295 51.0847 13.4122 52.619 12.0058C52.619 14.3295 55.8717 14.8187 57.8356 12.3115H58.2652C59.3698 12.3115 61.0882 11.6389 62.0088 10.5382C62.868 9.49867 63.6044 8.58144 65.0773 6.62466L65.3228 6.93041C65.5683 7.23616 65.6297 7.60305 65.4456 7.96995L63.4817 11.3332C62.6839 12.6784 63.2362 13.9626 64.7091 13.9626C65.6297 13.9626 66.673 13.3511 67.6549 12.495C67.6549 13.3511 68.2073 13.9626 69.2506 13.9626C69.7415 13.9626 70.3553 13.718 71.0303 13.3511L70.6007 14.0849C68.1459 14.8187 66.5502 15.8582 66.5502 17.2035C66.5502 18.9768 69.2506 19.3437 70.6007 17.0812L72.0123 14.6964C73.4852 14.2072 74.9581 13.3511 76.4924 11.8835C76.5537 13.0453 77.4743 13.8403 79.0086 13.8403C80.4815 13.8403 82.0158 12.9842 83.2432 11.8835C83.1818 14.2683 86.4958 14.7575 88.4597 12.2504H88.8893C89.4416 12.2504 90.2395 12.0669 90.9146 11.7C90.4236 12.9842 90.8532 13.8403 91.8965 13.8403C92.8784 13.8403 94.0445 12.923 94.9037 12.0669C94.7196 13.0453 95.3333 13.8403 96.4993 13.8403C98.0336 13.8403 99.752 12.2504 101.286 10.4771C102.33 9.25408 103.25 7.96994 103.925 7.11386C103.189 9.00948 103.618 12.4338 101.839 12.4338C101.225 12.4338 100.979 11.7612 100.979 11.7612L99.8134 12.3727C99.8134 12.3727 100.12 13.8403 101.839 13.8403C102.023 13.8403 102.145 13.8403 102.33 13.7791H102.391C104.293 13.5345 106.135 12.0669 107.485 10.4771C107.423 10.1713 107.117 9.86557 106.81 9.80442ZM80.4815 7.23616C81.5248 5.40168 83.4273 5.70743 82.3226 7.60305L82.0771 8.03109C81.2179 9.49867 79.9905 9.49867 79.3154 9.25408L80.4815 7.23616ZM45.3772 16.7754C45.009 17.4481 44.3953 17.3869 44.3953 16.8366C44.3953 16.3474 44.8249 15.797 46.2364 15.2467L45.3772 16.7754ZM46.2364 12.6784C45.8068 12.6784 45.6227 12.3727 46.0523 11.7L48.6299 7.23616C49.6118 5.52398 51.5757 5.95202 50.6551 7.60305L49.2436 10.049C48.1389 11.8223 46.9729 12.6784 46.2364 12.6784ZM57.5287 9.92672H57.4673C56.8536 9.92672 56.3627 10.4159 56.3627 11.0274C56.3627 11.272 56.424 11.4555 56.5468 11.6389V11.7C55.6876 13.1676 53.601 12.923 54.6443 10.9663L56.0558 8.58144L56.915 7.11386C58.2038 4.91248 59.9835 5.76857 58.8789 7.6642L57.5287 9.92672ZM69.0665 16.7754C68.6982 17.4481 68.0845 17.3869 68.0845 16.8366C68.0845 16.3474 68.5141 15.797 69.9256 15.2467L69.0665 16.7754ZM69.9256 12.6784C69.4961 12.6784 69.3119 12.3727 69.7415 11.7L72.3191 7.23616C73.3011 5.52398 75.2649 5.95202 74.3444 7.60305L72.9328 10.049C71.8281 11.8223 70.6621 12.6784 69.9256 12.6784ZM88.0301 9.92672H87.9687C87.355 9.92672 86.8641 10.4159 86.8641 11.0274C86.8641 11.272 86.9254 11.4555 87.0482 11.6389V11.7C86.189 13.1676 84.1024 12.923 85.1457 10.9663L86.5572 8.58144L87.4164 7.11386C88.7052 4.91248 90.485 5.76857 89.3803 7.6642L88.0301 9.92672Z"
      fill="#766458" />
  </symbol>

  <symbol viewBox="0 0 18 3" id="pic-welcome-line-right">
    <path d="M17.8437 0.846924H0.107422V2.06991H17.8437V0.846924Z" fill="#766458" />
  </symbol>

  <symbol viewBox="0 0 282 49" id="pic-welcome-sedona">
    <path
      d="M27.1874 13.3723C24.978 11.5378 22.2163 10.3148 19.2705 10.3148C17.0612 10.3148 14.1767 11.5989 14.1767 14.1672C14.1767 16.8578 17.4294 17.8973 19.4546 18.5088L22.5232 19.426C28.9058 21.3216 33.8768 24.5014 33.8768 31.9005C33.8768 36.4255 32.7721 41.134 29.1513 44.1915C25.5304 47.2489 20.7434 48.4719 16.1406 48.4719C10.3717 48.4719 4.6642 46.5151 0 43.2742L4.97106 33.7961C7.97824 36.4255 11.4764 38.5046 15.5882 38.5046C18.4113 38.5046 21.3571 37.0981 21.3571 33.9184C21.3571 30.5552 16.6929 29.4545 14.1153 28.7207C6.62807 26.5193 1.71839 24.6237 1.71839 15.7571C1.71839 6.46239 8.34646 0.408615 17.5521 0.408615C22.155 0.408615 27.8625 1.8762 31.913 4.19987L27.1874 13.3723Z"
      fill="white" />
    <path
      d="M56.2158 11.6602V19.3038H69.6561V29.3935H56.2158V37.2817H70.4539V47.3713H44.3098V1.63171H70.4539V11.7213L56.2158 11.6602Z"
      fill="white" />
    <path
      d="M79.2914 1.63171H96.2298C108.995 1.63171 119.551 11.6602 119.551 24.5015C119.551 37.3429 108.934 47.3713 96.2298 47.3713H79.2914V1.63171ZM91.2587 37.2817H93.9591C101.078 37.2817 107.154 33.3682 107.154 24.5015C107.154 16.3075 101.753 11.7213 94.0818 11.7213H91.2587V37.2817Z"
      fill="white" />
    <path
      d="M175.951 23.6453C175.951 38.4434 165.272 48.8999 150.543 48.8999C135.814 48.8999 125.136 38.4434 125.136 23.6453C125.136 9.82554 137.348 0.102814 150.543 0.102814C163.738 0.102814 175.951 9.82554 175.951 23.6453ZM137.533 23.7064C137.533 31.5947 143.363 37.3427 150.482 37.3427C157.601 37.3427 163.431 31.5947 163.431 23.7064C163.431 17.408 157.601 11.5989 150.482 11.5989C143.424 11.5989 137.533 17.408 137.533 23.7064Z"
      fill="white" />
    <path
      d="M182.272 1.63171H194.239L216.087 29.6381H216.21V1.63171H228.178V47.3713H216.21L194.362 19.3038H194.239V47.3713H182.272V1.63171Z"
      fill="white" />
    <path
      d="M249.842 39.4219L246.65 47.3713H234.008L251.683 1.63171H264.693L282 47.3713H269.296L266.289 39.4219H249.842ZM258.188 15.7572H258.065L253.156 30.3107H263.098L258.188 15.7572Z"
      fill="white" />
  </symbol>

  <symbol viewBox="0 0 10 7" id="icon-quotes-top">
    <path
      d="M4.21956 4.7506C4.21956 4.93405 4.15818 5.11749 4.09681 5.30094C4.03544 5.48439 3.9127 5.66783 3.78996 5.79013C3.66722 5.91243 3.4831 6.03473 3.29899 6.15703C3.11488 6.21818 2.8694 6.27933 2.62391 6.27933C2.31706 6.27933 2.07157 6.21817 1.82609 6.09587C1.5806 5.97358 1.33512 5.85129 1.151 5.66784C0.966891 5.48439 0.905521 5.30095 0.782779 5.05635C0.721408 4.81175 0.660034 4.56714 0.660034 4.2614C0.660034 3.71105 0.782776 3.28301 0.966889 2.79382C1.151 2.36578 1.39649 1.93774 1.76472 1.63199C1.88746 1.50969 2.07157 1.32624 2.25568 1.20394C2.43979 1.08164 2.62391 0.959341 2.80802 0.898191C2.99213 0.837042 3.11488 0.714747 3.23762 0.653598C3.36036 0.592449 3.42173 0.59246 3.4831 0.531311L4.3423 1.7543C4.21956 1.81544 4.03545 1.87659 3.85133 1.99889C3.66722 2.06004 3.4831 2.18234 3.29899 2.30463C3.11488 2.42693 2.99213 2.61037 2.86939 2.79382C2.74665 2.97727 2.68528 3.16072 2.68528 3.40531C3.11488 3.40531 3.42173 3.52761 3.72859 3.77221C4.09681 3.95566 4.21956 4.32256 4.21956 4.7506ZM9.06787 4.7506C9.06787 4.93405 9.0065 5.11749 8.94513 5.30094C8.88376 5.48439 8.76101 5.66783 8.63827 5.79013C8.51553 5.91243 8.33142 6.03473 8.14731 6.15703C7.96319 6.21818 7.7177 6.27933 7.47222 6.27933C7.16537 6.27933 6.91988 6.21817 6.6744 6.09587C6.42892 5.97358 6.18343 5.85129 5.99932 5.66784C5.87658 5.48439 5.75383 5.30095 5.63109 5.05635C5.56972 4.81175 5.50835 4.56714 5.50835 4.2614C5.50835 3.71105 5.63109 3.28301 5.8152 2.79382C5.99932 2.36578 6.2448 1.93774 6.61303 1.63199C6.73577 1.50969 6.91988 1.32624 7.104 1.20394C7.28811 1.08164 7.47222 0.959341 7.65634 0.898191C7.84045 0.837042 7.96319 0.714747 8.08593 0.653598C8.20867 0.592449 8.27005 0.59246 8.33142 0.531311L9.19061 1.7543C9.06787 1.81544 8.88375 1.87659 8.69964 1.99889C8.51553 2.06004 8.33142 2.18234 8.14731 2.30463C7.96319 2.42693 7.84045 2.61037 7.71771 2.79382C7.59496 2.97727 7.5336 3.16072 7.5336 3.40531C7.96319 3.40531 8.27005 3.52761 8.5769 3.77221C8.88376 3.95566 9.06787 4.32256 9.06787 4.7506Z"
      fill="white" />
  </symbol>

  <symbol viewBox="0 0 174 46" id="pic-because-the-grand-canyon-sucks">
    <path
      d="M14.2196 7.92588C18.9451 6.336 19.252 0.465668 14.6492 0.465668C13.3604 0.465668 11.8261 1.3829 10.7828 3.15623L4.52294 13.9796C4.21608 14.4688 3.9706 14.8969 3.60237 15.3249C2.00672 13.1235 2.43632 9.82149 4.70705 8.35391L3.78648 7.19208C-1.1232 10.3107 0.349703 19.2385 8.51205 19.2385C15.447 19.2385 18.6996 10.9222 14.2196 7.92588ZM8.45068 17.4651C7.03914 17.4651 5.99584 17.1594 5.07527 16.6702C5.50487 16.181 5.8731 15.6307 6.24132 15.0192L10.1691 8.23162L10.7828 8.29276C16.2448 9.45459 14.0968 17.4651 8.45068 17.4651ZM10.9669 6.88633L12.8694 3.64543C14.5878 0.710272 16.7358 2.42243 15.5697 4.62381C14.6492 6.33598 13.3604 6.82518 10.9669 6.88633Z"
      fill="white" />
    <path
      d="M33.9196 15.4482C33.5514 16.7935 34.2878 17.9553 35.8221 17.9553C36.7427 17.9553 37.9087 17.3439 39.0748 16.4266C39.1975 17.3439 39.9339 17.9553 41.1 17.9553C42.3274 17.9553 43.6776 17.0993 45.0278 15.8763C44.7823 17.0993 45.3346 17.9553 46.5007 17.9553C47.7894 17.9553 49.201 16.7935 50.3057 15.754C50.0602 16.977 50.7966 17.9553 52.2695 17.9553C54.172 17.9553 56.3814 15.8763 58.3453 13.6749C58.3453 13.6138 58.2839 13.6137 58.2839 13.5526C59.5727 12.085 60.6774 10.4951 61.5366 9.39446C60.616 11.7793 61.107 16.1209 58.8976 16.1209C58.0998 16.1209 57.7929 15.2648 57.7929 15.2648L56.32 15.9986C56.32 15.9986 56.7496 17.8942 58.8976 17.8942C59.1431 17.8942 59.3272 17.8942 59.5727 17.833H59.6341C61.3525 17.5884 63.0095 16.5489 64.4824 15.2648C64.5437 16.7935 65.7098 17.8942 67.6123 17.8942C70.2513 17.8942 72.8902 15.8151 74.7927 13.6138C74.6086 13.308 74.2404 12.9411 73.9335 12.8188L73.7494 13.0023C72.0924 14.959 69.9444 16.4878 68.2874 16.4878C66.8758 16.4878 66.0166 15.5705 67.06 13.7361L67.3054 13.308C68.7784 13.9195 71.6014 13.6138 73.3812 10.6174L73.688 10.0671C74.9155 7.92688 73.7494 6.337 71.8469 6.337C69.9444 6.337 68.4715 7.31538 67.4896 9.02756L65.2188 12.88H65.1575L64.9733 13.0634C64.1142 14.0418 63.0708 14.959 62.1503 15.5705C62.8867 13.3692 62.7026 9.94481 64.1755 7.00965L62.4571 6.09241C61.4752 7.43769 59.3886 10.434 57.302 12.88L57.3633 12.9411L57.302 13.0634C55.6449 15.0202 53.9879 16.5489 52.9446 16.5489C52.4536 16.5489 52.1468 16.182 52.6991 15.2648L57.6702 6.58159H55.3381L51.2262 13.7972C49.4465 15.3871 48.0963 16.3043 47.6667 16.1209C47.1144 15.8763 47.6667 15.0202 47.9736 14.531L52.515 6.64275H50.1829L46.5007 13.0023C46.4393 12.9411 46.3779 12.9411 46.3165 12.88L46.1324 13.0634C44.4754 15.0202 42.8184 16.5489 41.7751 16.5489C41.2841 16.5489 40.9773 16.182 41.5296 15.2648L45.2732 8.72182H43.9231C43.9844 7.74343 43.0025 6.39815 41.4682 6.39815C40.2408 6.39815 38.461 7.37654 37.4791 9.08871L35.147 13.1246C35.0243 13.0023 34.9015 12.9411 34.7788 12.88L34.5947 13.0634C32.9377 15.0202 30.7897 16.5489 29.1326 16.5489C27.7211 16.5489 26.8619 15.6317 27.9052 13.7972L30.2987 9.63905C31.6489 7.31538 34.0423 7.74342 32.6308 10.1282L32.3239 10.6786H34.2264L34.5333 10.1282C35.7607 7.98802 34.5947 6.39815 32.6922 6.39815C30.7897 6.39815 29.3168 7.37654 28.3348 9.08871L26.0027 13.0634C25.9414 13.0023 25.88 13.0023 25.8186 12.9411L25.6345 13.1246C23.9775 15.0813 21.8295 16.6101 20.1725 16.6101C18.7609 16.6101 17.9017 15.6928 18.9451 13.8583L19.1905 13.4303C20.6634 14.0418 23.4865 13.736 25.2663 10.7397L25.5731 10.1894C26.8005 8.04917 25.6345 6.45929 23.732 6.45929C21.8295 6.45929 20.3566 7.43769 19.3746 9.14987L16.9198 13.308C15.4469 15.754 16.7357 18.0776 19.4974 18.0776C21.5226 18.0776 23.6092 16.8547 25.2663 15.2648C25.2049 16.8547 26.4323 18.0776 28.3962 18.0776C30.3601 17.9553 32.2626 16.8547 33.9196 15.4482ZM69.5148 9.5779C70.865 7.25423 73.2584 7.68229 71.8469 10.0671L71.54 10.6174C70.4354 12.5131 68.9011 12.4519 68.0419 12.1462L69.5148 9.5779ZM36.2517 15.2648L39.5044 9.63905C40.7318 7.49883 43.248 8.04917 42.0819 10.1282L40.2408 13.308C38.8293 15.5094 37.4177 16.5489 36.4972 16.5489C36.0062 16.4878 35.6993 16.182 36.2517 15.2648ZM21.3999 9.5779C22.7501 7.25423 25.1435 7.68229 23.732 10.0671L23.4251 10.6174C22.3205 12.5131 20.7862 12.4519 19.927 12.1462L21.3999 9.5779Z"
      fill="white" />
    <path
      d="M100.323 17.954C102.962 17.954 105.601 15.8749 107.503 13.6736C107.319 13.3678 106.951 13.0009 106.644 12.8786L106.46 13.0621C104.803 15.0189 102.655 16.5476 100.998 16.5476C99.5866 16.5476 98.7274 15.6303 99.7707 13.7959L100.016 13.3678C101.489 13.9793 104.312 13.6736 106.092 10.6773L106.399 10.1269C107.626 7.98668 106.46 6.39682 104.558 6.39682C102.655 6.39682 101.182 7.3752 100.2 9.08738L97.9296 12.9398C97.9296 12.9398 97.8682 12.9398 97.8682 12.8786L97.6841 13.0621C96.0271 15.0189 94.37 16.5476 93.3267 16.5476C92.8358 16.5476 92.5289 16.1807 93.0812 15.2635L96.4567 9.39312C97.4386 7.6198 96.518 6.33566 95.2292 6.33566C94.2473 6.33566 93.1426 6.886 91.9766 8.10899L95.7202 1.68832H93.3267L86.76 13.0009C86.6987 12.9398 86.5759 12.8786 86.5145 12.8175L86.3304 13.0009C84.6734 14.9577 83.0164 16.4864 81.9731 16.4864C81.4821 16.4864 81.1753 16.1195 81.7276 15.2023L86.6986 6.5191H88.6012L89.2762 5.41843H87.3737L89.5831 1.62717H87.251L85.0416 5.41843H82.955L82.2799 6.5191H84.4279L79.7637 14.5908C78.7818 16.303 79.4569 17.8929 81.3594 17.8929C82.5254 17.8929 83.7528 17.1591 85.0416 16.0584L84.1211 17.6483H86.4532L90.0127 11.5333C93.5722 7.06945 95.1679 7.61979 94.1859 9.33197L91.1787 14.5908C90.1968 16.303 90.8719 17.8929 92.7744 17.8929C94.1859 17.8929 95.7816 16.7922 97.2545 15.3246C97.2545 16.8533 98.4205 17.954 100.323 17.954ZM102.226 9.57656C103.576 7.25289 105.969 7.68095 104.558 10.0658L104.251 10.6161C103.146 12.5117 101.612 12.4506 100.753 12.1448L102.226 9.57656Z"
      fill="white" />
    <path
      d="M170.9 12.8791L170.716 13.0626C169.059 15.0193 167.402 16.548 166.358 16.548C165.867 16.548 165.561 16.1812 166.113 15.2639L173.968 1.6888H171.636L168.199 7.55913C167.77 6.88649 167.033 6.33614 166.051 6.33614C164.824 6.33614 163.044 7.31453 162.062 9.0267L159.792 12.9402C159.73 12.9402 159.669 12.8791 159.669 12.8791L159.485 13.0626C157.828 15.0193 156.171 16.548 155.127 16.548C154.636 16.548 154.33 16.1812 154.882 15.2639L158.257 9.3936C159.239 7.62028 158.319 6.33614 157.03 6.33614C156.048 6.33614 154.943 6.88648 153.777 8.04831L154.636 6.51958H152.304L148.561 12.9402C148.499 12.8791 148.438 12.818 148.315 12.818L148.131 13.0014C146.474 14.9582 144.817 16.4869 143.774 16.4869C143.283 16.4869 142.976 16.12 143.528 15.2028L147.272 8.65981H146.106C146.167 7.68142 145.185 6.33614 143.651 6.33614C142.424 6.33614 140.644 7.31453 139.662 9.0267L137.391 12.8791L137.268 13.0014C135.611 14.9582 133.954 16.4869 132.911 16.4869C132.42 16.4869 132.113 16.12 132.666 15.2028L134.998 11.1669C135.796 9.7605 135.427 8.96555 134.691 8.04831L133.402 6.45843C133.095 6.03039 133.095 5.5412 133.525 5.11316L132.297 3.76787C130.947 4.9297 130.886 6.275 131.684 7.31453L131.868 7.55913C130.824 9.02671 129.474 10.9835 127.94 12.7568C128.001 12.818 128.063 12.8791 128.124 12.9402C126.222 15.1416 124.565 16.5481 122.724 17.343L125.669 12.3288H123.399L123.153 12.7568C121.926 14.897 120.514 16.4869 118.673 16.4869C117.077 16.4869 116.771 14.897 118.182 12.5122L118.857 11.3504C119.287 11.4115 119.716 11.4727 120.207 11.4727C128.492 11.4727 132.482 0.404663 125.178 0.404663C123.89 0.404663 122.355 1.3219 121.312 3.09522L117.691 9.33245C116.341 8.59866 115.604 7.31453 115.604 6.0304C115.604 4.92971 116.095 3.89016 117.077 3.09522L116.341 1.74995C114.684 2.91179 113.947 4.50167 113.947 6.09155C113.947 7.92603 114.991 9.69935 116.893 10.6777L116.218 11.9007C114.561 14.7136 114.868 17.8322 118.182 17.8322C119.164 17.8322 120.023 17.5265 120.698 17.0984L120.085 18.1379C116.955 19.1163 114.991 20.3393 114.991 22.1126C114.991 24.314 118.428 24.8032 120.085 21.9292L121.864 18.8717C124.258 18.1379 126.651 16.4869 129.229 13.4906C129.167 13.4294 129.167 13.3683 129.106 13.246C130.149 12.023 131.009 10.8612 132.788 8.47637L133.095 8.84326C133.402 9.21016 133.525 9.69934 133.218 10.1885L130.763 14.469C129.781 16.1812 130.456 17.771 132.359 17.771C133.525 17.771 134.814 17.0372 136.041 15.9366C136.041 16.9761 136.716 17.771 138.066 17.771C138.987 17.771 140.153 17.1595 141.319 16.2423C141.442 17.1595 142.178 17.771 143.344 17.771C144.449 17.771 145.676 17.0984 146.842 16.0589L145.983 17.5264H148.315L151.875 11.3504C155.434 6.88647 157.03 7.49797 155.987 9.21014L152.979 14.469C151.998 16.1812 152.673 17.771 154.575 17.771C155.802 17.771 157.153 16.915 158.503 15.7531C158.38 16.915 159.117 17.771 160.528 17.771C161.449 17.771 162.615 17.1595 163.781 16.2423C163.903 17.1595 164.64 17.771 165.806 17.771C167.708 17.771 169.918 15.692 171.882 13.4906C171.636 13.3683 171.207 13.0014 170.9 12.8791ZM123.092 4.19592C123.767 3.03409 124.565 2.48373 125.178 2.48373C128.861 2.48373 126.283 10.0051 120.207 10.0051H119.716L123.092 4.19592ZM118.121 21.6846C117.63 22.5407 116.832 22.4184 116.832 21.8069C116.832 21.1954 117.384 20.5228 119.164 19.8501L118.121 21.6846ZM142.485 13.246C141.073 15.4474 139.662 16.4869 138.741 16.4869C138.25 16.4869 137.944 16.12 138.496 15.2028L141.749 9.57704C142.976 7.43682 145.492 7.98718 144.326 10.0662L142.485 13.246ZM165.008 13.1237C163.597 15.4474 162.185 16.4869 161.203 16.4869C160.712 16.4869 160.405 16.12 160.958 15.2028L164.21 9.57704C165.438 7.43682 167.954 7.98718 166.788 10.0662L165.008 13.1237Z"
      fill="white" />
    <path
      d="M93.1427 34.8925L92.9586 35.076C91.3016 37.0328 89.6446 38.5615 88.6013 38.5615C88.1103 38.5615 87.8034 38.1946 88.3558 37.2774L91.7312 31.407C92.7131 29.6337 91.7925 28.3496 90.5038 28.3496C89.5218 28.3496 88.4171 28.8999 87.2511 30.0617L88.1103 28.533H85.7782L82.0346 35.0148C81.9118 34.9537 81.8504 34.8925 81.7277 34.8314L81.5436 35.0148C80.5003 36.1767 79.2115 36.727 78.0454 36.727L80.2548 32.9358C81.6663 30.4898 80.3775 28.2273 78.1682 28.2273C76.3884 28.2273 74.9769 28.9611 73.6267 31.2847L72.4607 33.2415L71.4787 34.9537C71.4174 34.8925 71.356 34.8925 71.2946 34.8314L71.1105 35.0148C69.208 37.2162 67.551 38.6226 65.7099 39.4176L72.0924 28.533H69.7603L65.6485 35.6875C63.8687 37.3385 62.4572 38.2557 62.0276 38.0723C61.4752 37.8277 62.0276 36.9716 62.3344 36.4824L66.8759 28.5942H64.5438L60.8002 35.0148C60.7388 34.9537 60.6774 34.9537 60.6161 34.8925L60.4319 35.076C58.7749 37.0328 57.1179 38.5615 56.0746 38.5615C55.5836 38.5615 55.2768 38.1946 55.8291 37.2774L59.2045 31.407C60.1865 29.6337 59.2659 28.3496 57.9771 28.3496C56.9952 28.3496 55.8905 28.8999 54.7244 30.0617L55.5836 28.533H53.2515L49.5079 34.9537C49.4465 34.8925 49.3851 34.8314 49.2624 34.8314L49.0783 35.0148C47.4213 36.9716 45.7643 38.5003 44.721 38.5003C44.23 38.5003 43.9231 38.1334 44.4755 37.2162L48.2191 30.6732H46.8689C46.9303 29.6949 45.9484 28.3496 44.4141 28.3496C43.1867 28.3496 41.4069 29.328 40.425 31.0401L38.0315 35.1983C37.8474 35.076 37.6633 34.9537 37.5405 34.8925L37.3564 35.076C35.6994 37.0328 33.6128 38.5615 31.3421 38.5615C29.7464 38.5615 28.7645 36.9716 30.176 34.5868L30.8511 33.425C31.2807 33.4861 31.7103 33.5473 32.2013 33.5473C34.6561 33.5473 37.4792 32.2631 39.3203 29.0834C39.9954 27.9215 40.2409 26.882 40.2409 25.9648C40.2409 23.8857 38.8907 22.4792 37.1723 22.4792C35.8835 22.4792 34.3492 23.3965 33.3059 25.1698L29.685 31.407C28.3349 30.6732 27.5984 29.3891 27.5984 28.105C27.5984 27.0043 28.0894 25.9647 29.0713 25.1698L28.3349 23.8245C26.6779 24.9864 25.9414 26.5762 25.9414 28.1661C25.9414 30.0006 26.9847 31.7739 28.8872 32.7523L28.2121 33.9753C26.5551 36.7882 27.5371 39.9068 30.8511 39.9068C33.4287 39.9068 35.3925 38.7449 36.9882 37.2162C36.4972 38.6838 37.2337 39.9068 38.8907 39.9068C39.8113 39.9068 40.9773 39.2953 42.1434 38.378C42.2661 39.2953 43.0026 39.9068 44.1686 39.9068C45.2733 39.9068 46.5007 39.2341 47.6668 38.1946L46.8076 39.6622H49.1397L52.6992 33.4861C56.2587 29.0222 57.8544 29.6337 56.811 31.3459L53.8039 36.6047C52.8219 38.3169 53.497 39.9068 55.3995 39.9068C56.6269 39.9068 58.0385 39.0507 59.3886 37.8277C59.0818 39.1118 59.6955 39.9068 60.8615 39.9068C61.9662 39.9068 63.255 38.9895 64.2983 38.0111L63.0095 40.2125C59.8796 41.1298 57.8544 42.4139 57.8544 44.1872C57.8544 46.3886 61.2911 46.8778 62.9482 44.0038L64.7279 40.9463C66.6918 40.3348 68.5943 39.1118 70.6195 37.1551C70.3127 40.396 74.6087 41.1298 77.2476 37.8277H77.7386C78.5978 37.8277 79.7638 37.522 80.8071 36.9105L79.2729 39.601H81.6049L85.1645 33.425C88.724 28.9611 90.3196 29.5726 89.2763 31.2847L86.2692 36.5436C85.2872 38.2557 85.9623 39.8456 87.8648 39.8456C89.7673 39.8456 91.9767 37.7665 93.9405 35.5652C93.8792 35.3817 93.4496 35.0148 93.1427 34.8925ZM35.2084 26.2094C35.8835 25.0475 36.6813 24.4972 37.2951 24.4972C38.1542 24.4972 38.5838 25.0475 38.5838 25.9036C38.5838 28.0438 35.9449 31.9574 32.324 31.9574H31.833L35.2084 26.2094ZM43.4322 35.2594C42.0206 37.4608 40.6091 38.5003 39.6885 38.5003C39.1976 38.5003 38.8907 38.1334 39.443 37.2162L42.6957 31.5905C43.9231 29.4503 46.4393 30.0006 45.2733 32.0797L43.4322 35.2594ZM61.107 43.698C60.6161 44.5541 59.8182 44.4318 59.8182 43.8203C59.8182 43.2088 60.3706 42.5362 62.1503 41.8636L61.107 43.698ZM76.818 35.0148H76.6953C75.9588 35.0148 75.3451 35.6263 75.3451 36.4213C75.3451 36.727 75.4065 36.9716 75.5906 37.2162V37.2774C74.4859 39.173 71.847 38.8061 73.1971 36.3601L74.9769 33.3027L76.0816 31.407C77.7386 28.6553 79.9479 29.756 78.5364 32.1408L76.818 35.0148Z"
      fill="white" />
    <path
      d="M147.088 35.6884C146.965 35.3215 146.536 34.9546 146.229 34.8935L146.045 35.0769C145.185 36.0553 144.142 36.9726 143.221 37.5841C143.958 35.3827 143.774 31.9583 145.247 29.0232L143.528 28.1059C142.546 29.4512 140.46 32.4475 138.373 34.8935L138.189 35.0769C136.532 37.0337 134.875 38.5624 133.832 38.5624C133.341 38.5624 132.85 38.0733 132.85 36.9726V35.9942C134.507 36.1776 136.225 35.1381 137.33 33.2425L137.944 32.1418C140.092 28.4117 136.593 27.1887 134.2 29.3901L137.514 23.642H135.182L128.554 35.1381C128.431 35.0158 128.247 34.8935 128.124 34.8323L127.94 35.0158C126.283 36.9726 124.135 38.5013 122.478 38.5013C121.067 38.5013 120.207 37.5841 121.251 35.7496L123.644 31.5914C124.994 29.2678 127.388 29.6958 125.976 32.0806L125.669 32.631H127.572L127.879 32.0806C129.106 29.9404 127.94 28.3505 126.038 28.3505C124.135 28.3505 122.662 29.3289 121.68 31.0411L119.409 34.9546C119.348 34.9546 119.287 34.8935 119.287 34.8935L119.103 35.0769C117.446 37.0337 115.789 38.5624 114.745 38.5624C114.254 38.5624 113.947 38.1956 114.5 37.2783L119.471 28.5951H117.139L113.027 35.8107C111.247 37.4006 109.897 38.3178 109.467 38.1344C108.915 37.8898 109.467 37.0337 109.774 36.5445L114.316 28.6563H111.984L107.442 36.4222C106.951 36.8503 106.399 37.2783 105.969 37.6452C106.706 35.4438 106.522 32.0195 107.994 29.0843L106.276 28.1671C105.294 29.5123 99.9549 36.6057 97.8069 39.0516C97.991 39.3574 98.3592 39.602 98.6661 39.8466C100.016 38.3178 104.435 32.631 105.233 31.5303C104.312 33.9151 104.803 38.2567 102.594 38.2567C101.796 38.2567 101.489 37.4006 101.489 37.4006L100.016 38.1344C100.016 38.1344 100.446 40.03 102.594 40.03C102.839 40.03 103.023 40.03 103.269 39.9689H103.33C104.496 39.7854 105.662 39.2962 106.767 38.5013C106.767 39.4185 107.319 40.03 108.301 40.03C109.59 40.03 111.002 38.8682 112.106 37.8287C111.861 39.0516 112.597 40.03 114.07 40.03C115.543 40.03 117.139 38.8682 118.673 37.3394C118.673 38.8682 119.9 40.03 121.803 40.03C123.705 40.03 125.547 38.9905 127.204 37.5841L125.915 39.8466H128.247L130.886 35.2604V37.0949C130.886 39.0516 131.254 40.0912 133.157 40.0912C135.059 40.0912 137.268 38.0121 139.232 35.8107C140.583 34.282 141.687 32.6921 142.546 31.5914C141.626 33.9762 142.117 38.3178 139.907 38.3178C139.11 38.3178 138.803 37.4618 138.803 37.4618L137.33 38.1956C137.33 38.1956 137.759 40.0912 139.907 40.0912C140.153 40.0912 140.337 40.0912 140.583 40.03H140.644C142.976 39.602 145.369 37.7064 147.088 35.6884ZM131.622 33.854L132.297 32.6921C134.998 28.962 136.839 30.0016 135.98 31.408L134.875 33.3036C134.2 34.5266 132.175 35.3827 131.622 33.854Z"
      fill="white" />
    <path
      d="M147.026 37.2781C146.29 37.2781 145.676 37.8896 145.676 38.6233C145.676 39.3571 146.229 39.9686 147.026 39.9686C147.763 39.9686 148.377 39.4183 148.377 38.6233C148.377 37.8896 147.763 37.2781 147.026 37.2781Z"
      fill="white" />
    <path d="M147.149 36.3602H149.481L156.785 23.7023H154.452L147.149 36.3602Z" fill="white" />
  </symbol>

  <symbol viewBox="0 0 10 7" id="icon-quotes-bottom">
    <path
      d="M4.21956 4.7506C4.21956 4.93405 4.15818 5.11749 4.09681 5.30094C4.03544 5.48439 3.9127 5.66783 3.78996 5.79013C3.66722 5.91243 3.4831 6.03473 3.29899 6.15703C3.11488 6.21818 2.8694 6.27933 2.62391 6.27933C2.31706 6.27933 2.07157 6.21817 1.82609 6.09587C1.5806 5.97358 1.33512 5.85129 1.151 5.66784C0.966891 5.48439 0.905521 5.30095 0.782779 5.05635C0.721408 4.81175 0.660034 4.56714 0.660034 4.2614C0.660034 3.71105 0.782776 3.28301 0.966889 2.79382C1.151 2.36578 1.39649 1.93774 1.76472 1.63199C1.88746 1.50969 2.07157 1.32624 2.25568 1.20394C2.43979 1.08164 2.62391 0.959341 2.80802 0.898191C2.99213 0.837042 3.11488 0.714747 3.23762 0.653598C3.36036 0.592449 3.42173 0.59246 3.4831 0.531311L4.3423 1.7543C4.21956 1.81544 4.03545 1.87659 3.85133 1.99889C3.66722 2.06004 3.4831 2.18234 3.29899 2.30463C3.11488 2.42693 2.99213 2.61037 2.86939 2.79382C2.74665 2.97727 2.68528 3.16072 2.68528 3.40531C3.11488 3.40531 3.42173 3.52761 3.72859 3.77221C4.09681 3.95566 4.21956 4.32256 4.21956 4.7506ZM9.06787 4.7506C9.06787 4.93405 9.0065 5.11749 8.94513 5.30094C8.88376 5.48439 8.76101 5.66783 8.63827 5.79013C8.51553 5.91243 8.33142 6.03473 8.14731 6.15703C7.96319 6.21818 7.7177 6.27933 7.47222 6.27933C7.16537 6.27933 6.91988 6.21817 6.6744 6.09587C6.42892 5.97358 6.18343 5.85129 5.99932 5.66784C5.87658 5.48439 5.75383 5.30095 5.63109 5.05635C5.56972 4.81175 5.50835 4.56714 5.50835 4.2614C5.50835 3.71105 5.63109 3.28301 5.8152 2.79382C5.99932 2.36578 6.2448 1.93774 6.61303 1.63199C6.73577 1.50969 6.91988 1.32624 7.104 1.20394C7.28811 1.08164 7.47222 0.959341 7.65634 0.898191C7.84045 0.837042 7.96319 0.714747 8.08593 0.653598C8.20867 0.592449 8.27005 0.59246 8.33142 0.531311L9.19061 1.7543C9.06787 1.81544 8.88375 1.87659 8.69964 1.99889C8.51553 2.06004 8.33142 2.18234 8.14731 2.30463C7.96319 2.42693 7.84045 2.61037 7.71771 2.79382C7.59496 2.97727 7.5336 3.16072 7.5336 3.40531C7.96319 3.40531 8.27005 3.52761 8.5769 3.77221C8.88376 3.95566 9.06787 4.32256 9.06787 4.7506Z"
      fill="white" />
  </symbol>

  <symbol viewBox="0 0 39 37" id="icon-house">
    <path d="M15.4015 33.2194H23.7549V21.0613H15.4015V33.2194ZM22.2408 31.7441H16.9155V22.5365H22.1886V31.7441H22.2408Z"
      fill="#81B3D2" />
    <path
      d="M37.9036 20.0431L39 18.9748L33.8313 13.9386V0.203483H26.6265V6.91843L19.4739 0L0 19.0257L1.09639 20.094L5.16867 16.126V35.3552H3.13253V36.8305H36.494V35.3552H33.8313V16.0752L37.9036 20.0431ZM28.1406 1.72961H32.2651V12.4633L28.1406 8.44455V1.72961ZM32.3173 35.3043H6.73494V14.5999L19.4739 2.13657L32.2651 14.5999V35.3043H32.3173Z"
      fill="#81B3D2" />
    <path
      d="M15.5582 13.8369C15.5582 16.0243 17.3855 17.8048 19.5783 17.8048C21.8233 17.8048 23.6506 16.0243 23.6506 13.8369C23.6506 11.6494 21.8233 9.9198 19.5783 9.9198C17.3333 9.9198 15.5582 11.6494 15.5582 13.8369ZM19.5783 11.2933C20.9879 11.2933 22.1888 12.4125 22.1888 13.8369C22.1888 15.2104 21.0402 16.3804 19.5783 16.3804C18.1687 16.3804 16.9679 15.2612 16.9679 13.8369C16.9679 12.4633 18.1687 11.2933 19.5783 11.2933Z"
      fill="#81B3D2" />
    <path d="M10.3895 21.0613H8.82324V23.0452H10.3895V21.0613Z" fill="#81B3D2" />
    <path d="M13.4698 21.0613H11.9036V23.0452H13.4698V21.0613Z" fill="#81B3D2" />
    <path d="M10.3895 24.1128H8.82324V26.0968H10.3895V24.1128Z" fill="#81B3D2" />
    <path d="M13.4698 24.1128H11.9036V26.0968H13.4698V24.1128Z" fill="#81B3D2" />
    <path d="M27.0443 21.0613H25.478V23.0452H27.0443V21.0613Z" fill="#81B3D2" />
    <path d="M30.1769 21.0613H28.6106V23.0452H30.1769V21.0613Z" fill="#81B3D2" />
    <path d="M27.0443 24.1128H25.478V26.0968H27.0443V24.1128Z" fill="#81B3D2" />
    <path d="M30.1769 24.1128H28.6106V26.0968H30.1769V24.1128Z" fill="#81B3D2" />
  </symbol>

  <symbol viewBox="0 0 32 38" id="icon-gift">
    <path
      d="M30.5778 11.2058H30.527H18.1841C25.0921 7.76156 25.6508 5.58358 25.3968 4.36796C24.8381 2.39259 22.5524 0.873068 20.419 1.68348C17.6254 2.74714 16.8635 6.9005 16.1016 9.88889C15.1365 6.84985 14.2222 3.0004 12.0381 1.02502C11.4286 0.467863 10.5143 -0.0892942 9.14286 0.0120071C7.11111 0.21461 4.21587 2.69649 5.43492 5.48228C6.55238 8.16676 10.2603 9.88888 12.7492 11.2565H1.42222C0.609524 11.2565 0 11.9149 0 12.6747V18.3475C0 19.158 0.660317 19.7658 1.42222 19.7658H1.5746V38H30.527V19.7658H30.5778C31.3905 19.7658 32 19.1073 32 18.3475V12.6747C32 11.8643 31.3397 11.2058 30.5778 11.2058ZM21.2317 2.94975C22.2984 2.79779 23.7206 3.6082 23.873 4.57057C24.0762 5.93813 22.1968 7.2044 21.3333 7.76156C20.0635 8.62262 18.8444 9.07847 17.6762 9.78758C18.0825 7.91351 18.946 3.25365 21.2317 2.94975ZM9.75238 7.91351C8.63492 7.15375 6.50159 5.68488 6.55238 4.01341C6.60317 2.18999 9.44762 0.721116 10.9714 2.08868C12.9016 3.76016 13.8159 7.66026 14.527 10.3954C12.9016 9.58498 11.3778 8.97717 9.75238 7.91351ZM12.7492 36.4805H3.04762V19.7658H12.7492V36.4805ZM12.7492 18.2462H1.52381V12.7253H12.7492V18.2462ZM17.8286 36.4805H14.2222V12.7253H17.8286V36.4805ZM29.0032 36.4805H19.3524V19.7658H29.054V36.4805H29.0032ZM30.4762 18.2462H19.3524V12.7253H30.4762V18.2462Z"
      fill="#81B3D2" />
  </symbol>

  <symbol viewBox="0 0 40 35" id="icon-burger">
    <path
      d="M37.7428 23.3004H2.25722C0.997375 23.3004 0 24.3135 0 25.4785V27.2514C0 28.4164 0.997375 29.3788 2.25722 29.3788H2.78215V29.8853C2.78215 32.6712 5.14436 34.9 7.979 34.9H32.021C34.9081 34.9 37.2178 32.6206 37.2178 29.8853V29.3788H37.7428C38.9501 29.3788 40 28.4164 40 27.2007V25.4278C40 24.3135 39.0026 23.3004 37.7428 23.3004ZM35.6955 29.8853C35.6955 31.8101 34.0682 33.3804 32.0735 33.3804H7.92651C5.93176 33.3804 4.30446 31.8101 4.30446 29.8853V29.3788H35.6955V29.8853ZM38.4252 27.2007C38.4252 27.5553 38.1102 27.8592 37.7428 27.8592H2.25722C1.88976 27.8592 1.5748 27.5553 1.5748 27.2007V25.4278C1.5748 25.1239 1.88976 24.82 2.25722 24.82H37.7953C38.1627 24.82 38.4777 25.1239 38.4777 25.4785V27.2007H38.4252Z"
      fill="#81B3D2" />
    <path
      d="M8.50395 19.1973L11.3386 21.2234L14.2257 19.1973L17.1129 21.2234L20 19.1973L22.8347 21.2234L25.7218 19.1973L28.6089 21.2234L31.4961 19.1973L34.3832 21.2234L37.6903 18.8427L36.7979 17.627L34.3832 19.2986L31.4961 17.2725L28.6089 19.2986L25.7218 17.2725L22.8347 19.2986L20 17.2725L17.1129 19.2986L14.2257 17.2725L11.3386 19.2986L8.50395 17.2725L5.61682 19.2986L3.20212 17.627L2.25723 18.8427L5.61682 21.2234L8.50395 19.1973Z"
      fill="#81B3D2" />
    <path
      d="M37.2179 15.7531C37.2179 15.4492 37.2704 14.4361 37.2179 14.2335C36.8504 6.33164 29.2913 0 20 0C10.7087 0 3.09712 6.33164 2.72967 14.2335C2.72967 14.4361 2.72967 15.4492 2.72967 15.7531H37.2179ZM20 1.51959C28.399 1.51959 35.3281 7.19274 35.6431 14.2335H4.30447C4.67193 7.19274 11.6011 1.51959 20 1.51959Z"
      fill="#81B3D2" />
    <path
      d="M20 8.61109C20.5798 8.61109 21.0499 8.15752 21.0499 7.59802C21.0499 7.03852 20.5798 6.58496 20 6.58496C19.4202 6.58496 18.9501 7.03852 18.9501 7.59802C18.9501 8.15752 19.4202 8.61109 20 8.61109Z"
      fill="#81B3D2" />
    <path
      d="M15.8005 6.12866C16.3803 6.12866 16.8504 5.6751 16.8504 5.1156C16.8504 4.5561 16.3803 4.10254 15.8005 4.10254C15.2207 4.10254 14.7506 4.5561 14.7506 5.1156C14.7506 5.6751 15.2207 6.12866 15.8005 6.12866Z"
      fill="#81B3D2" />
    <path
      d="M24.1995 6.12866C24.7793 6.12866 25.2493 5.6751 25.2493 5.1156C25.2493 4.5561 24.7793 4.10254 24.1995 4.10254C23.6196 4.10254 23.1496 4.5561 23.1496 5.1156C23.1496 5.6751 23.6196 6.12866 24.1995 6.12866Z"
      fill="#81B3D2" />
  </symbol>

  <symbol viewBox="0 0 27 27" id="marker-pic">
    <path
      d="M13.5 27C20.9558 27 27 20.9558 27 13.5C27 6.04416 20.9558 0 13.5 0C6.04416 0 0 6.04416 0 13.5C0 20.9558 6.04416 27 13.5 27Z"
      fill="white" />
    <path
      d="M13.5 21.8996C18.1392 21.8996 21.9 18.1388 21.9 13.4996C21.9 8.86042 18.1392 5.09961 13.5 5.09961C8.86078 5.09961 5.09998 8.86042 5.09998 13.4996C5.09998 18.1388 8.86078 21.8996 13.5 21.8996Z"
      fill="#81B3D3" />
  </symbol>

  <symbol viewBox="0 0 18 15" id="twitter-pic">
    <path
      d="M11.3 0.166728C13 -0.333272 14.4 0.366728 15 1.26673C15.7 1.06673 16.4 0.766728 17.1 0.566728C17.1 1.36673 16.6 2.06673 16.2 2.26673C16.9 2.46673 17.5 1.76673 17.5 1.76673C17.3 2.76673 16.5 3.46673 15.9 3.76673C15.7 10.3667 12.6 14.7667 5.5 14.5667C5 14.5667 5.6 14.5667 5 14.5667C4.6 14.5667 0.7 14.1667 0 12.7667C2.3 12.9667 4 12.3667 4.8 11.6667C3.8 11.3667 2 11.1667 1.7 8.76673C2.1 8.86673 2.3 8.96673 3 8.86673C1.8 8.06673 0.4 7.36673 0.5 5.16673C0.8 5.46673 1.6 5.66673 1.9 5.66673C1.2 5.46673 -0.1 2.36673 1 0.866728C2.9 2.66673 4.8 4.36673 8.4 4.56673C8.5 2.26673 9.5 0.766728 11.3 0.166728Z" />
  </symbol>

  <symbol viewBox="0 0 9 19" id="facebook-pic">
    <path
      d="M6.3 3.4C7.1 3.4 7.9 3.4 8.7 3.4C8.7 2.3 8.7 1.2 8.7 0C7.7 0 6.8 0 5.8 0C2.7 0.2 1.5 2.4 1.9 6.1H0V9.6H2C2 12.7 2 15.8 2 18.9C3.3 18.9 4.6 18.9 5.8 18.9C5.8 15.8 5.8 12.7 5.8 9.6H8.7V6.1H5.8C5.8 5.1 5.8 3.7 6.3 3.4Z" />
  </symbol>

  <symbol viewBox="0 0 20 14" id="youtube-pic">
    <path
      d="M17.1 0H2.8C1.3 0 0 1.3 0 2.8V11.1C0 12.7 1.3 14 2.8 14H17.1C18.7 14 19.9 12.7 19.9 11.2V2.8C20 1.3 18.7 0 17.1 0ZM7 10.4V3.6L13.8 7L7 10.4Z" />
  </symbol>

  <symbol viewBox="0 0 27 35" id="developer-pic">
    <path
      d="M13.6 0H13.5L0 1.4V26.1L13.5 34.1L26.9 26.1V1.4L13.6 0ZM25 12.1L13.5 5.3V5.2H13.4L13.3 5.1V5.2L1.9 12.1V3.1L13.4 1.9L25 3.1V12.1ZM13.4 6.8L24.9 13.5L20.4 16.1L13.3 11.9V13.3L19.2 16.8L18.3 17.3L13.3 14.3V15.7L17.1 18L16.3 18.5L13.3 16.7V18.1L15.2 19.2L13.4 20.3L2 13.6L13.4 6.8ZM1.9 15.1L13.3 21.9V22.9L5.4 18.2V19.6L13.4 24.4V25.5L5.4 20.8V22.2L13.4 27L21.5 22.1V16.9L24.9 14.9V24.9L13.4 31.8L1.9 25V15.1Z" />
  </symbol>
</svg>
